<svg xmlns="http://www.w3.org/2000/svg" width="275.6" height="275.6"><circle cx="137.8" cy="137.8" r="132.8" stroke="#19d832" stroke-width="10" stroke-miterlimit="10"/><path d="M221.6 75.4l-.3 4c-.1 1.6-3.6 39.8-19.9 54.5a29.8 29.8 0 0 1-39.8.1l-5 4.3a39 39 0 0 0-13.6 29.5v54.1c0 3-2.4 5.4-5.4 5.4-3 0-5.4-2.4-5.4-5.4V211c0-8.9-3.8-17.4-10.4-23.4l-8-7.2a29.5 29.5 0 0 1-16.7 6.2h-1.6c-7.4 0-14.4-2.7-19.9-7.7-16.4-14.7-19.8-52.9-19.9-54.5l-.3-4h4c1.7 0 41.1.5 56.2 14a30 30 0 0 1 5.5 37.9l11.2 10.1v-52.5c0-3 2.4-5.4 5.4-5.4 3 0 5.4 2.4 5.4 5.4v5.8l11.9-10.2a29.9 29.9 0 0 1 6.4-36.2c15.1-13.5 54.5-14 56.2-14z" fill="#fff"/></svg>