<svg xmlns="http://www.w3.org/2000/svg" id="Calque_1" width="275.6" height="275.6"><style id="style2">.st1{display:none;fill:#fff}</style><circle id="XMLID_1_" cx="137.8" cy="137.8" r="132.8" stroke="#ffcf00" stroke-width="10" stroke-miterlimit="10"/><g id="Calque_5" transform="translate(-362.5 -362.7)"><path d="M557 483.7a31 31 0 0 0-8.1.9l-11.1-28.8H556c3 0 5.3-2.3 5.3-5.3s-2.3-5.3-5.3-5.3h-25.8c-1.8 0-3.5.9-4.4 2.3a5.1 5.1 0 0 0-.5 4.8l4.8 12.7h-53.9l-3.7-8.3 9.9-1.2a3.5 3.5 0 0 0 3.2-3.5v-2.8c0-1.8-1.4-3.2-3.2-3.5l-31.4-3.5c-1.4-.2-2.8.5-3.5 1.8-.7 1.2-.7 2.8.2 3.9l6.7 8.8c.7.9 1.6 1.4 2.8 1.4h.5l3.7-.5 5.5 11.8-11.3 17.1a36 36 0 0 0-50.7 33.2 36 36 0 0 0 36.2 36.2 36.3 36.3 0 0 0 36-32.5h6.5a14 14 0 0 0 12.7 8.5c7.6 0 13.8-6.2 13.8-13.8 0-2.5-.7-4.8-1.8-6.7l27.9-32.3 3.5 9.2a36.3 36.3 0 0 0-18.2 31.4 36.3 36.3 0 0 0 72.4 0 37 37 0 0 0-36.9-36zm-85-2.8l13.1 28.8-2.1 3.2h-6.9a36 36 0 0 0-12-20.5zm-13.6 20.3c3.2 3.2 5.8 7.1 6.9 11.5h-14.8zm-17.6 44a25.6 25.6 0 0 1 0-51.2c3 0 6 .5 8.5 1.6l-12.9 19.6a5 5 0 0 0-.2 5.5 5.6 5.6 0 0 0 4.6 2.8h25.1a25.3 25.3 0 0 1-25.1 21.7zm54.9-20.5a6.7 6.7 0 1 1 0-13.4 6.7 6.7 0 0 1 0 13.4zm3.7-19.8c-1.2-.2-2.3-.5-3.5-.5-.5 0-.9 0-1.4.2l-13.4-29h43.8zm57.6 40.3a25.6 25.6 0 0 1-25.6-25.6 25 25 0 0 1 11.5-21.2l9 23.3c.9 2.1 2.8 3.5 4.8 3.5.7 0 1.4 0 1.8-.5a5.3 5.3 0 0 0 3-6.9l-8.8-23.3c1.4-.2 2.8-.5 4.1-.5a25.6 25.6 0 0 1 .2 51.2z" id="path10" fill="#fff"/></g></svg>