<svg xmlns="http://www.w3.org/2000/svg" id="Calque_1" width="275.6" height="275.6"><style id="style2">.st1{fill:#fff}</style><circle id="XMLID_1_" cx="137.8" cy="137.8" r="132.8" stroke="#00b1ff" stroke-width="10" stroke-miterlimit="10"/><g id="Calque_4" transform="translate(-362.5 -362.7)"><g id="g45"><path class="st1" d="M479.8 497.8h-11.6c-1 0-2.1 0-2.8-1.1a4 4 0 0 1-.3-4.2c.5-1 1.4-1.9 2.8-1.8h3.5c1 .1 1.4-.3 1.4-1.4.1-2.3 0-4.7.5-7 .4-1.6 1.6-3.1 2.6-4.6a11.3 11.3 0 0 1 9.4-4.5H514l.1-1.2v-22c0-2.1-2-4.8-4-4.8-1.1 0-2.1-.3-3.2-.3h-67.2c-1.6 0-1.6 0-1.6 1.6v21.2l-.2 2.1h-13.1v-58.1h13.1l.2 4.2v16.3c0 1.1.3 1.4 1.4 1.4h79c2.2 0 4.2.6 5.4 2.5.6 1 1 2.3 1 3.5V473.3h2.6c8.1 0 16.2-.1 24.4.1 2.2 0 4.5.4 6.4 1.2 2.4 1 4.3 2.9 5.6 5.3 1 1.9 1.6 3.9 1.5 6.1v4.8h4.6c1.4.1 2.8.5 3.4 1.9.6 1.3.2 3.5-.9 4.2-.8.5-1.8.8-2.8.8h-67.3" id="path5" fill="#fff"/><path class="st1" d="M496.4 518.2c1 2.6 2 4.8 2.7 7.2.6 2-.8 4.1-3.4 3.6-2.1-.4-2.9-2.2-2.1-4.2l1.9-5.1c.2-.6.5-.9.9-1.5z" id="path7" fill="#fff"/><path class="st1" d="M508.9 535.5l1.4 3 1.4 3.8a3 3 0 0 1-1 3.3 3 3 0 0 1-3.6 0 2.9 2.9 0 0 1-1-3.4l2.1-5.6c.1-.4.4-.6.7-1.1z" id="path9" fill="#fff"/><path class="st1" d="M544.7 519.8l1.2 2.6 1.6 4.3c.4 1.1-.2 2.9-1.1 3.4-1.5.9-2.7.7-3.8-.5-1.1-1.3-1.2-2-.5-3.5l1.9-4.7c.1-.5.3-.9.7-1.6z" id="path11" fill="#fff"/><path class="st1" d="M472.2 560.2c.6 1.2 1.2 2.2 1.6 3.3l1.3 3.9c.5 1.2-.1 2.3-.8 2.9-.7.7-1.7 1.4-3 .7-1.9-1-2.4-2.6-1.6-4.6l2-5.1.5-1.1z" id="path13" fill="#fff"/><path class="st1" d="M547.6 552l1.5 3.3 1.2 3.3c.5 1.4.3 2.5-.7 3.2-1.5 1.1-2.7 1.1-4 .1-.9-.7-1.2-2.3-.7-3.5l2.1-5.6c0-.2.3-.3.6-.8z" id="path15" fill="#fff"/><path class="st1" d="M533.4 504.1l1.4 3 1.3 3.9c.5 1.2-.1 2-.8 2.8a3 3 0 0 1-3.1.8c-1.5-.4-2.3-2.7-1.6-4.4l2.4-6 .4-.1z" id="path17" fill="#fff"/><path class="st1" d="M562.6 560.9c.9 2.4 1.8 4.6 2.5 7 .4 1.2-.4 3-1.4 3.3-1.5.6-3.3.2-3.9-1.1-.4-.9-.4-2.1-.1-3 .7-2.1 1.7-4 2.6-6-.1-.1 0-.1.3-.2z" id="path19" fill="#fff"/><path class="st1" d="M556.6 504l1.1 2.3c.6 1.7 1.3 3.3 1.8 5.1.3.9-.7 2.5-1.7 3-1 .4-2.1.7-3.1-.3a3.4 3.4 0 0 1-.7-4.1l2.2-5.3c0-.2.1-.4.4-.7z" id="path21" fill="#fff"/><path class="st1" d="M522.7 559.1l1.8 4.7.8 2.5c.4 1.5-.1 2.8-1.2 3.4-1.5.7-2.8.4-3.8-.8-.4-.5-.5-1.5-.4-2.2.2-1.1.6-2.2.9-3.2l.8-2.1 1.1-2.3z" id="path23" fill="#fff"/><path class="st1" d="M508.9 504c.5 1 1.1 1.8 1.4 2.7.6 1.5 1.2 2.9 1.4 4.4.1.9-.4 2-1 2.7-.9 1-2.2 1-3.2.4-1.6-1-2-2.5-1.2-4.3l2.2-5.4.4-.5z" id="path25" fill="#fff"/><path class="st1" d="M522.5 519.7l1.9 4.1c.4 1 .5 2.1.9 3 .7 1.6-.3 3.4-2.4 3.8-1.3.3-3.1-1.1-3.2-2.6-.1-.8.2-1.6.5-2.4l2.3-5.9z" id="path27" fill="#fff"/><path class="st1" d="M534.4 536.5l1.3 3.1 1.3 3.4c.5 1.3.1 2.6-.7 3.4-.7.7-1.8 1.1-3 .6-1.6-.6-2.4-2.2-1.8-3.8l2.4-6c0-.2.2-.4.5-.7z" id="path29" fill="#fff"/><path class="st1" d="M562.6 531.1l2.5 6.9c.4 1.2-.4 2.9-1.4 3.4-1.3.6-3.3.2-3.8-1-.4-.9-.6-2.2-.3-3.1.7-2.1 1.7-4.1 2.5-6.1l.5-.1z" id="path31" fill="#fff"/><path class="st1" d="M484.2 503l1.6 3.8c.4 1.1.9 2.3 1 3.4.1.8-.3 1.7-.7 2.3-.6.8-1.6 1.2-2.6.9-1.7-.5-2.6-1.2-2.1-3.5.6-2.4 1.5-4.7 2.3-7l.5.1z" id="path33" fill="#fff"/><path class="st1" d="M541.9 575.6c1 2.6 1.9 5 2.6 7.4.4 1.1-.3 2.3-1.3 2.9-1.1.6-2.2.6-3.2-.1-1.1-.8-1.5-2-1.1-3.2l2.1-5.8c.1-.4.4-.7.9-1.2z" id="path35" fill="#fff"/><path class="st1" d="M493.6 548.5l.5 1.5 1.9 4.8c.5 1.2.2 3.1-.7 3.6-1.6 1-4.2.9-4.7-1.5-.2-.9.1-2 .4-3 .6-1.9 1.4-3.7 2.1-5.5l.5.1z" id="path37" fill="#fff"/><path class="st1" d="M506.1 571.7l2.8 7.2c.4 1.3-.8 3.3-1.9 3.5-2 .3-3.6-.6-3.9-2.4-.1-.4 0-.9.1-1.3l2.1-5.7c.1-.4.4-.7.8-1.3z" id="path39" fill="#fff"/><path class="st1" d="M476.9 531c.9 2.4 1.8 4.7 2.5 7.1.4 1.2-.5 2.9-1.4 3.3-1.2.5-3.3.1-3.8-1-.4-1-.4-2.4-.1-3.4.6-2 1.6-3.9 2.4-5.9l.4-.1z" id="path41" fill="#fff"/><path class="st1" d="M486.6 575.8c.8 2.3 1.8 4.6 2.5 6.9.3 1 .1 2.2-.9 2.9-1 .8-2.2.8-3.4.3-1.1-.5-1.5-1.4-1.3-2.4l1.8-5.7c.2-.7.6-1.3.9-1.9l.4-.1z" id="path43" fill="#fff"/></g></g></svg>
