<svg xmlns="http://www.w3.org/2000/svg" id="svg98" width="275.6" height="275.6"><style id="style2">.st2{fill:#fff}</style><g id="Calque_1" transform="translate(-362.5 -362.7)"><circle id="XMLID_1_" cx="500.3" cy="500.5" r="132.8" stroke="#7400ff" stroke-width="10" stroke-miterlimit="10"/></g><g id="Calque_4" transform="translate(-362.5 -362.7)"><circle id="XMLID_28_" cx="500.3" cy="500.5" r="132.8" fill="none" stroke="#00dc00" stroke-width="10" stroke-miterlimit="10"/></g><g id="Calque_5" transform="translate(-362.5 -362.7)"><g id="XMLID_3_"><path id="XMLID_202_" class="st2" d="M528.1 505.2c19.3-11.5 54.9 0 54.9 0-12.6-6.3-22.3-6.8-27.4-8.7 4-8.7 12.6-18.4 22.5-29.9-5.7 3.7-12.2 9-19.8 20.3a18.8 18.8 0 0 1-23.8 6.9c-4.2-2.2-2.3-16.7 1.7-30.7-6.8 12.8-6.2 22.3-8.6 30.1-2.4 7.8-11.5 6.5-24.5 19.6l-2.9 3.3 2.9-3.3c-7.2-15.6-2.4-29.8 6.6-40.5a35.5 35.5 0 0 0-14 15c-6-42 14-59.6 14-59.6-10.3 5.2-16.1 29.3-19.2 40.1-4.1-8.6-16.5-19.3-16.5-19.3s8.9 12.9 14.4 31.3c5.6 18.4 3.1 36.1-3.1 37.2-15.3-2.7-19.6-17-23.2-25.6.7 7.3 4 15.9 4 15.9s-7.4.7-15.3-2.5c-9.9-6.4-19-27.3-29.8-34.5 6.1 5 17.3 26.1 24.6 36.1-7.8.2-23.3 7.3-31.1 15.4 22.7-15.4 40.4-12.9 50.7-8.8.6 4.5-10.7 19.5-16.9 27.2a187 187 0 0 0 22.5-25.2c13.2 4.9 13.8 19.6 11.4 27-4.8 14.9-5.6 28-5.6 33.7 0 9.3 3.8 21.4 3.8 21.4h35c-4.8 0-20.1-15.8-20.1-38.2 0-33 27.5-51 30.6-50.4 3.1.6 14.2 14.6 26.3 19.6a77.4 77.4 0 0 1-24.1-22.9z" fill="#fff"/><path id="XMLID_201_" class="st2" d="M421.3 470.1l-1.8-1.1 1.8 1.1z" fill="#fff"/><path id="XMLID_200_" class="st2" d="M396.7 537.2c12.1.6 17.6-8.8 17.1-14.6 0 .1-14 .2-17.1 14.6z" fill="#fff"/><path id="XMLID_199_" class="st2" d="M422.8 509s-10-10.8-21.4-3c8.1 9.8 18 7.4 21.4 3z" fill="#fff"/><path id="XMLID_198_" class="st2" d="M404.7 517.5s-9-7.1-17.2.5c7.5 6.7 15 3.5 17.2-.5z" fill="#fff"/><path id="XMLID_197_" class="st2" d="M433.3 499.4s-5.7 1-6.1 7.1c4.9-.6 6.6-4.8 6.1-7.1z" fill="#fff"/><path id="XMLID_196_" class="st2" d="M424.7 484.7c.7 7.4 5.9 9.9 8.7 9.1.1 0-1.2-8.5-8.7-9.1z" fill="#fff"/><path id="XMLID_195_" class="st2" d="M414.4 494.3c4.5 7.3 11.2 6.7 13.8 4.1-.1.1-5.7-8-13.8-4.1z" fill="#fff"/><path id="XMLID_194_" class="st2" d="M409.5 479.6c7.5 6.1 14.6 2.7 16.6-1.2 0 0-9-6.5-16.6 1.2z" fill="#fff"/><path id="XMLID_193_" class="st2" d="M405 495.9c5.6-2.1 6.6-7.4 5.4-9.9 0 .1-6.3 2.8-5.4 9.9z" fill="#fff"/><path id="XMLID_192_" class="st2" d="M406 482.1s-4.5-5.6-10.3-2.2c3.7 5.1 8.6 4.3 10.3 2.2z" fill="#fff"/><path id="XMLID_191_" class="st2" d="M410.8 457.4s-4.7-9.4-13.8-6.8c3.7 8.4 10.8 9 13.8 6.8z" fill="#fff"/><path id="XMLID_190_" class="st2" d="M419.7 459.5s3.9-11.3-4.9-17.9c-3.8 9.6.9 16.6 4.9 17.9z" fill="#fff"/><path id="XMLID_189_" class="st2" d="M429 469.5s6.9-11.2-1-20.9c-6.5 9.4-3 18.4 1 20.9z" fill="#fff"/><path id="XMLID_188_" class="st2" d="M435.9 479s5-2.6 3.9-8.4c-4.5 2-5 6.4-3.9 8.4z" fill="#fff"/><path id="XMLID_187_" class="st2" d="M442 489.5s4.5-5.5.9-11.3c-4.1 4.4-2.9 9.6-.9 11.3z" fill="#fff"/><path id="XMLID_186_" class="st2" d="M455.8 482.4c-.9 5.6 2.4 8.7 4.7 8.8 0 .1.7-6.5-4.7-8.8z" fill="#fff"/><path id="XMLID_185_" class="st2" d="M477.7 484.6c-7.5.7-10.2 7-9.5 10.5 0 0 8.6-1.3 9.5-10.5z" fill="#fff"/><path id="XMLID_184_" class="st2" d="M474.8 469.5c-9.7 3.2-11.7 12.3-9.9 16.7 0 0 11-4.4 9.9-16.7z" fill="#fff"/><path id="XMLID_183_" class="st2" d="M456.1 468.1c-.9 7.4 3.5 11.2 6.5 11.2-.1 0 .6-8.5-6.5-11.2z" fill="#fff"/><path id="XMLID_182_" class="st2" d="M436.4 454.4c-.7 5.7 2.7 8.7 5 8.7 0 0 .5-6.6-5-8.7z" fill="#fff"/><path id="XMLID_181_" class="st2" d="M446.3 466.5s7.6.7 9.9-6.9c-6.5-1-9.9 3.8-9.9 6.9z" fill="#fff"/><path id="XMLID_180_" class="st2" d="M445.5 458.3s8.7-2.9 8.3-12.4c-7.6 2-9.5 8.9-8.3 12.4z" fill="#fff"/><path id="XMLID_179_" class="st2" d="M450 427.5c-6.9 4-7.2 11.2-5.2 14.3 0 0 7.8-5.2 5.2-14.3z" fill="#fff"/><path id="XMLID_178_" class="st2" d="M441.4 432.6s.1-11.4-9.6-14.1c-.5 9.8 5.8 14.4 9.6 14.1z" fill="#fff"/><path id="XMLID_177_" class="st2" d="M431.4 437.8s.1-7.6-6.4-9.4c-.3 6.6 3.9 9.6 6.4 9.4z" fill="#fff"/><path id="XMLID_176_" class="st2" d="M438.1 443.6s-5.1-5.1-10.6-1c4.2 4.7 9 3.3 10.6 1z" fill="#fff"/><path id="XMLID_175_" class="st2" d="M460.6 460.6c-.7 5.2 2.5 7.9 4.6 7.9 0 0 .4-6-4.6-7.9z" fill="#fff"/><path id="XMLID_174_" class="st2" d="M464.6 456.9c4.9 4.8 10.1 2.9 11.6.3 0 0-5.9-5.1-11.6-.3z" fill="#fff"/><path id="XMLID_173_" class="st2" d="M472.9 448.2s-4.1-13.4-16.3-12.3c2.9 11.8 11.9 14.4 16.3 12.3z" fill="#fff"/><path id="XMLID_172_" class="st2" d="M483.6 452.8s9.2-9.7 3.1-21.5c-8.4 8-6.7 18-3.1 21.5z" fill="#fff"/><path id="XMLID_171_" class="st2" d="M474.5 442.9s9.2-9.7 3.1-21.5c-8.3 7.9-6.7 17.9-3.1 21.5z" fill="#fff"/><path id="XMLID_170_" class="st2" d="M487.3 415.3s4.8-10.9-3.2-18.3c-4.7 9.1-.6 16.6 3.2 18.3z" fill="#fff"/><path id="XMLID_169_" class="st2" d="M504.3 427.9s6.8-11.5-1.4-21.1c-6.4 9.6-2.7 18.7 1.4 21.1z" fill="#fff"/><path id="XMLID_168_" class="st2" d="M535.6 413c-12.5-2.9-19.7 5.8-20.1 11.9 0 0 14.6 2.5 20.1-11.9z" fill="#fff"/><path id="XMLID_167_" class="st2" d="M514.9 406c-5 4.1-4.4 9.8-2.5 11.9 0 .1 5.5-5 2.5-11.9z" fill="#fff"/><path id="XMLID_166_" class="st2" d="M530.2 437.3c-7.2-9.6-16.5-7.8-19.8-3.9 0 0 8.9 10.5 19.8 3.9z" fill="#fff"/><path id="XMLID_165_" class="st2" d="M518.2 448.2c-4.5-5.9-10.2-4.9-12.3-2.4 0 0 5.5 6.6 12.3 2.4z" fill="#fff"/><path id="XMLID_164_" class="st2" d="M512.2 469.4s10.7-1.9 11.6-13.2c-9.3 1-12.5 8.9-11.6 13.2z" fill="#fff"/><path id="XMLID_163_" class="st2" d="M541.7 459.4s15.2-2.6 16.5-18.8c-13.3 1.5-17.9 12.7-16.5 18.8z" fill="#fff"/><path id="XMLID_162_" class="st2" d="M572.8 465.8s10.6-5.7 8.2-17.8c-9.4 4.3-10.4 13.6-8.2 17.8z" fill="#fff"/><path id="XMLID_161_" class="st2" d="M562 479.1s6.2-7.8 1.1-16c-5.8 6.4-4 13.7-1.1 16z" fill="#fff"/><path id="XMLID_160_" class="st2" d="M590.5 436.1c-5.9 1.5-7.4 6.8-6.5 9.5 0 0 6.8-2.2 6.5-9.5z" fill="#fff"/><path id="XMLID_159_" class="st2" d="M596.2 442.7c-11.1 2.8-13.9 12.7-12.2 17.8 0 0 12.7-4 12.2-17.8z" fill="#fff"/><path id="XMLID_158_" class="st2" d="M584.6 465.1s9.3 10.1 20.1 2.9c-7.6-9.2-16.9-7-20.1-2.9z" fill="#fff"/><path id="XMLID_157_" class="st2" d="M576.4 474.7s5.3 12.5 17.1 10c-4-11.1-13-12.6-17.1-10z" fill="#fff"/><path id="XMLID_156_" class="st2" d="M590 502.1s5.7 13.4 18.3 10.7c-4.3-11.9-13.9-13.4-18.3-10.7z" fill="#fff"/><path id="XMLID_155_" class="st2" d="M588.2 514s2.4 11.5 12.7 11.7c-1.6-10-8.9-13-12.7-11.7z" fill="#fff"/><path id="XMLID_154_" class="st2" d="M578 513.9s-3 11.3 5.9 17c3.1-9.7-2-16.2-5.9-17z" fill="#fff"/><path id="XMLID_153_" class="st2" d="M578.5 508.3s2.7 5.3 7.8 3.7c-2.1-4.7-6.1-5-7.8-3.7z" fill="#fff"/><path id="XMLID_135_" class="st2" d="M571.8 510.5s-5.6 5.7-2 12.8c5-4.7 4.1-10.7 2-12.8z" fill="#fff"/><path id="XMLID_134_" class="st2" d="M573 532c-5.2-9.7-13.8-9.5-17.3-6.5.1 0 6.7 10.8 17.3 6.5z" fill="#fff"/><path id="XMLID_133_" class="st2" d="M563.4 511.6c-10-2.4-15.8 4.6-16.1 9.4 0 0 11.7 2.1 16.1-9.4z" fill="#fff"/><path id="XMLID_132_" class="st2" d="M537.7 509.2s7.2 4.3 12.4-2.1c-6-4-11.2-1-12.4 2.1z" fill="#fff"/><path id="XMLID_131_" class="st2" d="M565.6 538.3s.2 11 9.5 13.4c.3-9.5-5.8-13.8-9.5-13.4z" fill="#fff"/><path id="XMLID_130_" class="st2" d="M553 532.6s-1.4 12.9 9.2 17.4c1.8-11.1-4.8-17.2-9.2-17.4z" fill="#fff"/><path id="XMLID_129_" class="st2" d="M540.9 526.2s-5.6 10 1.6 18c5.3-8.3 2-15.9-1.6-18z" fill="#fff"/><path id="XMLID_36_" class="st2" d="M522.4 535.2c8.2-3.8 9.1-11.9 7.2-15.5 0 0-9.2 4.9-7.2 15.5z" fill="#fff"/><path id="XMLID_35_" class="st2" d="M527.2 511.5s-8.2 1-9.2 9.6c7.1-.4 9.8-6.3 9.2-9.6z" fill="#fff"/><path id="XMLID_34_" class="st2" d="M533 516.9s-2.7 6.2 2 10.4c2.6-5.2.2-9.5-2-10.4z" fill="#fff"/><path id="XMLID_33_" class="st2" d="M609 451.7c-7.7-1.8-12.1 3.6-12.4 7.4 0 0 9 1.5 12.4-7.4z" fill="#fff"/><path id="XMLID_32_" class="st2" d="M540.4 470s9.7 3 14.6-6.2c-8.3-3.1-13.9 2.1-14.6 6.2z" fill="#fff"/><path id="XMLID_31_" class="st2" d="M546.3 484.8s7.5-1.3 8.1-9.3c-6.5.7-8.8 6.2-8.1 9.3z" fill="#fff"/><path id="XMLID_30_" class="st2" d="M543.8 488.5s1.4-7.2-4.4-10.3c-1.6 6.1 1.9 9.9 4.4 10.3z" fill="#fff"/><path id="XMLID_29_" class="st2" d="M545.5 487.6s3.5 3.8 7.5 1c-2.9-3.4-6.3-2.6-7.5-1z" fill="#fff"/><path id="XMLID_27_" class="st2" d="M591.2 491.2c-8.3-3.1-13.8 2.1-14.6 6.2 0 0 9.7 3.1 14.6-6.2z" fill="#fff"/><path id="XMLID_26_" class="st2" d="M566.1 494.2s10.1.5 12.9-9.7c-8.7-1-13 5.5-12.9 9.7z" fill="#fff"/><path id="XMLID_25_" class="st2" d="M601 481s7.4 7.5 15.5 1.7c-6-6.9-13.1-4.9-15.5-1.7z" fill="#fff"/><path id="XMLID_24_" class="st2" d="M603.3 473.4c-5.5-.6-8.3 3.6-8.2 6.2a8 8 0 0 0 8.2-6.2z" fill="#fff"/><path id="XMLID_23_" class="st2" d="M604.2 491.7c-.8-7.2-5.9-9.6-8.7-8.8 0-.1 1.4 8.2 8.7 8.8z" fill="#fff"/><path id="XMLID_22_" class="st2" d="M532.3 446.9c-2.3 7.4 1.6 12.4 4.6 13.1 0 0 2.2-8.8-4.6-13.1z" fill="#fff"/><path id="XMLID_21_" class="st2" d="M533.4 422.6c-2 6.2 1.3 10.4 3.9 11-.1 0 1.8-7.3-3.9-11z" fill="#fff"/><path id="XMLID_20_" class="st2" d="M559.9 438.6s1.9-7.3-3.9-11c-1.9 6.2 1.4 10.4 3.9 11z" fill="#fff"/><path id="XMLID_19_" class="st2" d="M578.2 443.8s-7-6.7-14.3-1.2c5.8 6.2 12.2 4.2 14.3 1.2z" fill="#fff"/><path id="XMLID_18_" class="st2" d="M564.5 429s4.5-5.8.5-11.8c-4.1 4.9-2.6 10.1-.5 11.8z" fill="#fff"/><path id="XMLID_15_" class="st2" d="M549.8 435.1c-5.8-2.2-9.6 1.5-10.1 4.4 0 0 6.8 2.1 10.1-4.4z" fill="#fff"/><path id="XMLID_14_" class="st2" d="M552.6 419.6c-8.9.3-12.5 7.5-11.9 11.7 0 0 10.3-.9 11.9-11.7z" fill="#fff"/><path id="XMLID_13_" class="st2" d="M565.6 436.3s12.5-1.2 14.4-14.3c-10.8.4-15.1 9.2-14.4 14.3z" fill="#fff"/><path id="XMLID_12_" class="st2" d="M501.6 464.5c-.4 5.7 3.2 8.3 5.4 8.2 0 0 .2-6.5-5.4-8.2z" fill="#fff"/><path id="XMLID_11_" class="st2" d="M511.6 463.7s3.6-6.3-.9-11.5c-3.5 5.3-1.4 10.2.9 11.5z" fill="#fff"/><path id="XMLID_10_" class="st2" d="M523.7 478.7s-5-7.4-12.4-4c3.9 6.6 10 6.3 12.4 4z" fill="#fff"/><path id="XMLID_9_" class="st2" d="M496.1 411.1c-5.9 2.3-6.9 7.9-5.6 10.6 0 0 6.7-3.1 5.6-10.6z" fill="#fff"/><path id="XMLID_8_" class="st2" d="M484.9 420.9s-3.2-5.4-8.4-3.4c2.5 4.9 6.7 4.9 8.4 3.4z" fill="#fff"/><path id="XMLID_7_" class="st2" d="M465.8 432.4s3-10.2-4.9-15.6c-3.1 8.7 1.3 14.7 4.9 15.6z" fill="#fff"/><path id="XMLID_6_" class="st2" d="M417.3 467.2s-9.3-11.5-21.2-4.6c7.6 10.4 17.6 8.7 21.2 4.6z" fill="#fff"/><path id="XMLID_5_" class="st2" d="M403.6 486.8s-10-4.1-15.8 5.2c8.5 4.1 14.7-.9 15.8-5.2z" fill="#fff"/><path id="XMLID_4_" class="st2" d="M417.5 533.4c9.4-2.1 12-10.5 10.6-14.8.1-.1-10.7 3-10.6 14.8z" fill="#fff"/></g></g></svg>