<svg xmlns="http://www.w3.org/2000/svg" id="Calque_1" width="275.6" height="275.6"><style id="style2">.st1{display:none}.st2{fill:#fff}.st2,.st3{display:inline}.st4{fill:#fff}</style><g id="Calque_1_3_" transform="translate(-362.5 -362.7)"><g id="Calque_1_2_"><g id="Calque_1_1_"><circle id="XMLID_1_" cx="500.3" cy="500.5" r="132.8" stroke="#7400ff" stroke-width="10" stroke-miterlimit="10"/></g></g></g><g id="XMLID_11_" transform="translate(-362.5 -362.7)"><path id="XMLID_9_" class="st4" d="M541.2 412v13.6c0 1.3-1 2-2 2h-14.6c-11.8 0-11.8 0-16.4 10.8-2.5 6.1-4.8 12.4-7.6 18.2-.5 1.3-2.3 2.8-3.5 2.8-9.1.3-17.9.3-27.5.3-1 0-2-.8-2-1.8-.3-2-.5-3.8-.5-5.8 0-2.5-1-3.3-3.5-3-5 .3-10.1.5-15.1.3-1.8 0-3.3-1-5-1.8-1-.5-1.5-1.5-1-2.5.8-1.8 1.3-3.5 2.5-4.5 8.6-8.8 17.6-17.4 26.5-25.7 2.3-2 5.5-3 8.1-4.5.3-.3.5-.3 1-.3h58.5a2 2 0 0 1 2.1 1.9z" fill="#fff"/><path id="XMLID_8_" class="st4" d="M521 433.7h16.4c.8 0 1.5.5 1.5 1.5 1.3 10.3 4 20.2 9.8 28.7 1.8 2.5 4 4.8 5.5 7.6.8 1 1 2.3 1.3 3.5.3 1-.5 2-1.5 2-1.5 0-3 0-4-.5a53.2 53.2 0 0 1-22.9-22.4c-3-5.5-5-11.6-7.6-18.2-.5-1.2.3-2.2 1.5-2.2z" fill="#fff"/><path id="XMLID_7_" class="st4" d="M546.8 425.6v-9.1c0-1 1-1.8 2-1.5 2.3.8 4.5 1.3 6.3 2.5 1.3.8 1.8 3.3 1.8 4.8 0 1-1.3 2.8-2.3 3.3-1.8.8-3.8 1.3-5.8 1.8-1 0-2-.8-2-1.8z" fill="#fff"/><path id="XMLID_6_" class="st4" d="M506.9 493.4l-6.8-11.6h.8c1 0 2-1 2-2v-9.3c0-1-1-2-2-2h-33.5c-1 0-2 1-2 2v9.3c0 1 1 2 2 2h.8l-6.8 11.6a124.8 124.8 0 0 0-17.6 64v28.2c0 1.8 1.5 3.3 3.3 3.3H521c1.8 0 3.3-1.5 3.3-3.3v-28.2c0-22.6-6-44.6-17.4-64z" fill="#fff"/></g></svg>