<svg xmlns="http://www.w3.org/2000/svg" width="275.6" height="275.6"><circle cx="137.8" cy="137.8" r="132.8" stroke="#ff8d00" stroke-width="10" stroke-miterlimit="10"/><path d="M81.2 118.4c-.4-6.2.3-12.4 2.8-17.8 1.3-2.7 3.1-5 4.9-7.3 1.8-2.3 3.8-4.5 6.3-6.3l-.1-.3c-1.7.1-3.2.8-4.6 1.6-1.4.8-2.7 1.8-3.9 3a21.6 21.6 0 0 0-4.9 8.4 34.4 34.4 0 0 0-.9 18.8zm11.7 5.1h.3a43 43 0 0 1 1.5-17.2c.9-2.7 2.3-5.1 3.6-7.6 1.3-2.5 2.8-4.8 4.7-7.2l-.2-.3c-3 1.1-5.3 3.3-7.1 5.8a22 22 0 0 0-3.3 8.6 40 40 0 0 0 .5 17.9zm5.3 50.7c-3.2 2.3-6.1 4.9-9.3 7.2-6.5 4.5-13.3 8.5-20.5 12l.1.3c7.5-2.6 14.8-6.1 21.7-10.2 3.4-2.1 7-4.1 9.9-6.9 3-2.7 5.8-5.8 7.6-9.5l-.2-.2c-3 2.6-6.1 4.9-9.3 7.3zm20.3-67.9a45 45 0 0 1 1.5 17.2h.3c1.5-5.7 1.9-11.9.6-17.9a22 22 0 0 0-3.3-8.6 15.4 15.4 0 0 0-7.1-5.8l-.2.3c1.8 2.4 3.4 4.7 4.7 7.2 1.2 2.4 2.7 4.9 3.5 7.6zm5.9-13c1.8 2.3 3.6 4.6 4.9 7.3a36.8 36.8 0 0 1 2.8 17.8h.3a34.5 34.5 0 0 0-.9-18.8c-1.1-3-2.5-6.1-4.9-8.4a22.5 22.5 0 0 0-3.9-3c-1.4-.8-3-1.4-4.6-1.6l-.1.3c2.5 2 4.5 4.2 6.4 6.4zm47.2-.6c-.2 9.8 7.1 13.8 12.1 15.5 3.9-2.9 5.9-10.3 3.9-15.5 2.1 3.4 3.7 0 3.7 0s3.6 13.6-2.6 17.3c5 1.8 15.8 2.5 24.4 0-2.9 8.1-18.4 10.2-25.5 6.2-5 10.9-12.4 14.9-23.3 6.7 9.8 5 12.6-3.3 15.7-10.2-6.7-2.8-11.6-16-8.4-20zM89 82.6c5.5 0 10.3-.9 12.4-6.1 2.1-5.1 4.1-21.8 4.1-21.8h2.1s2 16.7 4.1 21.8c2.1 5.2 7 6.1 12.4 6.1 6.7 0 19.4 5.2 19.4 19.7s-10 28.8-37 28.8-37-14.3-37-28.8c.2-14.6 12.9-19.7 19.5-19.7zM61.4 198c7.1-8.7 7.1-53.6 49.8-34.6 5.7 46.4-33 33.4-49.8 34.6zm52.1-36.9c-15.7-14.7 2.1-20.2 7.3-30 11.8 24.7-4.6 24.1-6.5 29.3 21.1-8.4 20.7 11.9 25.1 19.4-14-2.7-27.3 3.8-25.9-18.7zm64 23.5a41.2 41.2 0 0 1-41.4-41.1 41.2 41.2 0 0 1 33-40.2c1.4 3.9 4 8.1 7.3 10.7-2 4.6-3.8 7.4-6.6 7.6-2.6.2-6.2-.6-8.7-1.3 1.2 7 10.1 9.9 13.9 9.9 5.7 0 10.4-3.4 14.1-10.2 2.2.7 4.8 1.1 7.6 1.1 4.5 0 9.3-1 13.1-3.3a41.2 41.2 0 0 1-32.3 66.8zM120 167a25.7 25.7 0 0 1-2.9-4.4h-.2c-.2 2 .5 3.9 1.4 5.5 1 1.7 2.5 3 4 4.1 1.5 1.1 3.2 2 4.9 2.7 1.8.6 3.6 1 5.4 1.2v-.2a21 21 0 0 1-9.3-5c-1.3-1.1-2.2-2.6-3.3-3.9zm-2.2-13.1c.9-1.7 1.3-3.6 1.7-5.4.9-3.7 1.4-7.4 1.4-11.1h-.2l-1.2 5.4c-.4 1.8-1 3.5-1.6 5.3-.6 1.7-1.5 3.3-2 5.1a66 66 0 0 0-1.7 5.3l.2.1a17 17 0 0 0 3.4-4.7z" fill="#fff"/></svg>