<svg xmlns="http://www.w3.org/2000/svg" id="Calque_1" width="275.6" height="275.6"><style id="style2">.st1{fill:#fff}</style><circle id="XMLID_1_" cx="137.8" cy="137.8" r="132.8" stroke="#ffcf00" stroke-width="10" stroke-miterlimit="10"/><ellipse id="XMLID_2_" class="st1" cx="139.9" cy="131" rx="80.4" ry="70.4" fill="#fff"/><path class="st1" d="M196.5 127a31 31 0 0 0-8.1.9l-11.1-28.8h18.2c3 0 5.3-2.3 5.3-5.3s-2.3-5.3-5.3-5.3h-25.8c-1.8 0-3.5.9-4.4 2.3a5.1 5.1 0 0 0-.5 4.8l4.8 12.7h-53.9L112 100l9.9-1.2a3.5 3.5 0 0 0 3.2-3.5v-2.8c0-1.8-1.4-3.2-3.2-3.5l-31.4-3.5c-1.4-.2-2.8.5-3.5 1.8-.7 1.2-.7 2.8.2 3.9l6.7 8.8c.7.9 1.6 1.4 2.8 1.4h.5l3.7-.5 5.5 11.8-11.3 17.1A36 36 0 0 0 44.4 163a36 36 0 0 0 36.2 36.2 36.3 36.3 0 0 0 36-32.5h6.5a14 14 0 0 0 12.7 8.5c7.6 0 13.8-6.2 13.8-13.8 0-2.5-.7-4.8-1.8-6.7l27.9-32.3 3.5 9.2A36.3 36.3 0 0 0 161 163a36.3 36.3 0 0 0 72.4 0 37 37 0 0 0-36.9-36zm-85-2.8l13.1 28.8-2.1 3.2h-6.9a36 36 0 0 0-12-20.5zm-13.6 20.3c3.2 3.2 5.8 7.1 6.9 11.5H90zm-17.6 44a25.6 25.6 0 0 1 0-51.2c3 0 6 .5 8.5 1.6l-12.9 19.6a5 5 0 0 0-.2 5.5 5.6 5.6 0 0 0 4.6 2.8h25.2a25.4 25.4 0 0 1-25.2 21.7zm54.9-20.5a6.7 6.7 0 1 1 0-13.4 6.7 6.7 0 0 1 0 13.4zm3.7-19.8c-1.2-.2-2.3-.5-3.5-.5-.5 0-.9 0-1.4.2l-13.4-29h43.9zm57.6 40.3a25.6 25.6 0 0 1-25.6-25.6 25 25 0 0 1 11.5-21.2l9 23.3c.9 2.1 2.8 3.5 4.8 3.5.7 0 1.4 0 1.8-.5a5.3 5.3 0 0 0 3-6.9l-8.8-23.3c1.4-.2 2.8-.5 4.1-.5a25.6 25.6 0 0 1 .2 51.2z" id="path6" fill="#fff"/><path d="M137.2 34.3A105.3 105.3 0 0 0 32.1 139.4c0 57.9 47.2 105.1 105.1 105.1a105.2 105.2 0 0 0 0-210.2zm-7.3 44c0-4.2 3.2-7.3 7.3-7.3s7.3 3.2 7.3 7.3v44c0 3.9-3.2 7.3-7.3 7.3a7.2 7.2 0 0 1-7.3-7.3zm50.1 98.3a56.7 56.7 0 1 1-80-80 7.2 7.2 0 0 1 10.3.7 7.2 7.2 0 0 1-.7 10.3 42 42 0 1 0 55.2 63.6 42 42 0 0 0 0-63.6 7.1 7.1 0 0 1-.7-10.3 7.4 7.4 0 0 1 10.3-.7 56.7 56.7 0 0 1 5.6 80z" id="path8"/></svg>