<svg xmlns="http://www.w3.org/2000/svg" id="svg18" width="275.6" height="275.6"><style id="style2">.st1{fill:#fff}</style><g id="Calque_1" transform="translate(-362.5 -362.7)"><circle id="XMLID_1_" cx="500.3" cy="500.5" r="132.8" stroke="#ffcf00" stroke-width="10" stroke-miterlimit="10"/></g><g id="Calque_2" transform="translate(-362.5 -362.7)"><g id="Calque_5"><g id="g14"><path class="st1" d="M442.3 497.8c.8 7.9 2 17.9 3.4 21.5 0 0-24.8 24.3-21.6 33.5 0 0-.6 3.7 5.8 4.5 6.5.8 16.8 3.7 19.6 3.7 2.8 0 1.2-2.8 5.8-3.7 2.3-.5 2.3-3.1 0-4.8-2.3-1.7-14.8-5.4-14.8-5.4s18.5-12.1 21.3-19.2l1.2-3.3a88.7 88.7 0 0 1-20.7-26.8z" id="path6" fill="#fff"/><path class="st1" d="M570.9 472.3c2 .8 5.4-.2 5.4-.2a22.8 22.8 0 0 0-1.7-12c-.6-1.4 0-6.9 1.4-10.9 1.1-3.1 0-4.4-1.4-5.8 0 0-1.1 0-2.3.9-1.1 1.1-6.2-1.6-9 .9 0 0 1.6-4.2 7-2.5l2.5-1.6c-1.6-2.5-3.4-7.8-12.5-9.7-10-2-20.2 5.8-20.2 5.8l-7.2 5.1s-35-4.5-48.7 3.4c-13.7 7.9-17.1 6.1-35 18.8-6.5 4.7-8.3 19.6-8.3 19.6l.6 2.8v.2c1.2 4.4 6.4 18.2 26.8 36.9 4.5 3.6 7.9 5.3 7.9 5.3 5.1 19.6 15.1 27.7 20.4 33.9 5.3 6.2 18.7-1.7 23.2-3.1 4.5-1.4 5.1-3.4 5.1-3.4 3.4.3 2.3-3.4 2.3-3.4a15 15 0 0 0-15.4-4c-3.7 1.1-7.6 0-7.6 0s-9.7-23.7-10.3-27.7c-1.9-11.7-12.9-24.8-12.9-24.8a85 85 0 0 0 27.1-3.6c-.5-3.6.2-10 3.6-21.2 0 0-1.7 19.2 1.9 26.9 9.3 13.2 26.6 28.8 26.6 31.5 0 3.1 2.8 8.1 2.8 9.5 0 1.4-5.1 6.9-5.1 6.9l-4-2c2-3.1-.8-5.8-.8-5.8l-3.7 4.4c-1.1 1.2-.9 3.3.5 4.4l6.4 4.5c.9.6 2.2.8 3.3.2 17.4-10.6 17.4-19 14.5-23.7-3.1-4.8-19.2-31.5-19.2-31.5 1.6-7.3 1.9-14 2.8-18.8 1.9-14-5.6-26.6-5.6-26.6a36.8 36.8 0 0 1 8.7 20.2c.2 0 .2-.2.3-.2 4.5-2 19.9 10 26 8.3 5-1.4 7.3-3 8.6-5.9-2.3.6-7.9 1.1-7.8-5.9-.1 0 .8 3.1 3 3.9zm3.9-6.3c-.2.8-3.1-.2-3.1-2.3 0 0 3.1 1.4 3.1 2.3zm-22.3-14s-3.7 1.1-3.7-2.2c0-2.6 3.7-1.6 3.7-1.6zm-2.3-7.6c-1.7-.5-3.7.2-4.8 1.6-2.5 3.6 2 9 3.6 9.3 1.9.3 3.1 2.6.8 3.1s-4.4-3.4-4.4-3.4c-5.6-6.7-1.9-12.8 2.2-12.8 4 0 5 3.3 5 3.3-.8-.6-1.6-1-2.4-1.1zm17.6 12s-.5 1.6-2 0c-1.2-1.2-.9-3.9.9-4.2.6-.2 1.1.3 1.1.9z" id="path8" fill="#fff"/><path class="st1" d="M538.4 497.6l16.2 26.8s-8.7-33.6-13.7-48.3c0 .1-1.3 16.7-2.5 21.5z" id="path10" fill="#fff"/><path class="st1" d="M558.3 534.5s1.1 4-5.8 11.4c0 0 .3 6.5 2 8.6.6.8.8 1.7.8 2.8 0 0-2.8.5-2.8 1.7s.2 1.7 3 2c.8.3 12.8 1.4 9.8-3.7-3.3-5.3 1.1-8.9-7-22.8z" id="path12" fill="#fff"/></g></g></g></svg>