<svg xmlns="http://www.w3.org/2000/svg" id="svg181" width="275.6" height="275.6"><style id="style2">.st1{display:none}.st2{display:inline}.st2,.st4{fill:#fff}</style><g id="Calque_1" transform="translate(-362.5 -362.7)"><g id="Calque_1_1_"><circle id="XMLID_1_" cx="500.3" cy="500.5" r="132.8" stroke="#7400ff" stroke-width="10" stroke-miterlimit="10"/></g></g><g id="Calque_2" transform="translate(-362.5 -362.7)"><g id="g176"><path class="st4" d="M562.4 480.1c-.1-.1-8.5-14-9.7-26.1-1-9.6-5.8-15.7-14.5-18-5-1.4-20.7-8.2-20.8-8.2a.6.6 0 0 0-.7.1c-.2.1-.4.4-.4.6-.5 8.7-8.5 15.5-18.4 15.5-9.9 0-18-6.8-18.4-15.5 0-.3-.2-.5-.4-.6-.2-.1-.5-.2-.7-.1-.2.1-15.8 6.9-20.8 8.2-8.6 2.4-13.5 8.4-14.5 18-1.2 12-9.6 25.9-9.7 26.1-.2.3-.2.7.1.9a29 29 0 0 0 26.5 9c.8 6.1 5.6 44.7-1.3 71.5-.1.3 0 .6.3.8.5.3 11.3 8.1 38.7 8.1 27.3 0 38.9-7.8 39.4-8.1.3-.2.4-.5.3-.9-7-26.8-2.2-65.4-1.3-71.5 1.7.3 3.4.4 5.1.4 13.4 0 21.1-9.1 21.4-9.4 0-.2 0-.5-.2-.8zm-21.4 8.8a34 34 0 0 1-5.5-.5 154 154 0 0 1 3.3-17.1c.1-.3-.1-.5-.3-.6-.3-.1-.5.1-.6.3-2.2 8.5-3.3 17-3.4 17.9-.1.4-6.3 43 1.1 72.4-2.4 1.4-14.2 7.5-38 7.5s-35-6.1-37.3-7.5l.5-2.2.1-.1v-.3c6.4-29.2.6-69.4.5-69.8l-.2-.3c-.2-1.8-1.4-9.7-3.4-17.7-.1-.3-.3-.4-.6-.3-.3.1-.4.3-.3.6 1.4 5.3 2.3 10.5 2.9 14h-.2l-.8.1c-.2 0-.3.2-.3.4s.2.3.3.3h.1l.8-.1.1-.1.4 2.6a28 28 0 0 1-25.2-8c1.6-2.7 8.5-15 9.6-26.2.9-9 5.3-14.5 13.3-16.6 3.2-.9 10.3-3.8 15.4-5.9l.1.3.3.2h.1c.2 0 .3-.2.2-.4l-.1-.4 4-1.7c1.1 9 9.6 15.9 19.9 15.9 10.3 0 18.8-6.9 19.9-15.9 3.6 1.5 15.6 6.7 20 7.9 8 2.2 12.4 7.6 13.3 16.6a70 70 0 0 0 8.4 24l-.6.5c-.1.1-.2.3 0 .4l.2.1.2-.1.5-.4.9 1.6a27 27 0 0 1-19.6 8.6z" id="path16" fill="#fff"/><path class="st4" d="M447.9 484.8l-.7-.2c-.2-.1-.3 0-.4.2-.1.2 0 .3.2.4l.8.2h.1l.3-.2c0-.2-.1-.4-.3-.4z" id="path18" fill="#fff"/><path class="st4" d="M439 480c-.1-.1-.3-.1-.4.1-.1.1-.1.3.1.4l.6.5.2.1.3-.1c.1-.1.1-.3-.1-.4l-.7-.6z" id="path20" fill="#fff"/><path class="st4" d="M445.7 484l-.7-.3c-.2-.1-.3 0-.4.2-.1.2 0 .3.2.4l.7.3h.1l.3-.2c.1-.1 0-.3-.2-.4z" id="path22" fill="#fff"/><path class="st4" d="M440.9 481.4c-.1-.1-.3-.1-.4.1-.1.1-.1.3.1.4l.7.4.2.1.3-.1c.1-.1.1-.3-.1-.4l-.8-.5z" id="path24" fill="#fff"/><path class="st4" d="M437.2 478.6a.3.3 0 0 0-.4 0c-.1.1-.1.3 0 .4l.6.5.2.1.2-.1c.1-.1.1-.3 0-.4l-.6-.5z" id="path26" fill="#fff"/><path class="st4" d="M456.2 485.9c0 .2.2.3.3.3l.8-.1c.2 0 .3-.2.3-.3l-.3-.3-.8.1c-.2 0-.3.1-.3.3z" id="path28" fill="#fff"/><path class="st4" d="M454.9 485.6h-.8c-.2 0-.3.1-.3.3 0 .2.1.3.3.3H454.9c.2 0 .3-.1.3-.3 0-.2-.1-.3-.3-.3z" id="path30" fill="#fff"/><path class="st4" d="M452.6 485.6l-.8-.1c-.2 0-.3.1-.3.3 0 .2.1.3.3.3l.8.1c.2 0 .3-.1.3-.3 0-.2-.2-.3-.3-.3z" id="path32" fill="#fff"/><path class="st4" d="M450.2 485.3l-.8-.1-.4.2c-.1.1.1.3.2.4l.8.1h.1c.2 0 .3-.1.3-.3.1-.1 0-.3-.2-.3z" id="path34" fill="#fff"/><path class="st4" d="M442.9 482.7c-.2-.1-.3 0-.4.1-.1.2 0 .3.1.4l.7.4h.1l.3-.2c.1-.2 0-.3-.1-.4l-.7-.3z" id="path36" fill="#fff"/><path class="st4" d="M557.7 479.7l-.6.5c-.1.1-.2.3-.1.4l.3.1.2-.1.6-.5c.1-.1.2-.3.1-.4h-.5z" id="path38" fill="#fff"/><path class="st4" d="M551.7 483.3l-.7.3c-.2.1-.2.3-.2.4l.3.2h.1l.7-.3c.2-.1.2-.3.2-.4-.1-.2-.3-.3-.4-.2z" id="path40" fill="#fff"/><path class="st4" d="M537.9 485.4l-.8-.1c-.2 0-.3.1-.4.3 0 .2.1.3.3.4l.8.1c.2 0 .3-.1.3-.3.1-.2 0-.3-.2-.4z" id="path42" fill="#fff"/><path class="st4" d="M553.8 482.2l-.7.4c-.2.1-.2.3-.1.4l.3.2h.1l.7-.4c.2-.1.2-.3.1-.4-.1-.2-.3-.3-.4-.2z" id="path44" fill="#fff"/><path class="st4" d="M549.5 484.1l-.7.3c-.2.1-.3.2-.2.4l.3.2h.1l.8-.3c.2-.1.3-.2.2-.4l-.5-.2z" id="path46" fill="#fff"/><path class="st4" d="M547.2 484.8l-.8.2c-.2 0-.3.2-.2.4l.3.2h.1l.8-.2c.2 0 .3-.2.2-.4l-.4-.2z" id="path48" fill="#fff"/><path class="st4" d="M540.3 485.6h-.8c-.2 0-.3.1-.3.3 0 .2.1.3.3.3h.8c.2 0 .3-.1.3-.3l-.3-.3z" id="path50" fill="#fff"/><path class="st4" d="M555.8 481l-.7.4c-.1.1-.2.3-.1.4l.3.2h.2l.7-.4c.1-.1.2-.3.1-.4-.1-.2-.3-.3-.5-.2z" id="path52" fill="#fff"/><path class="st4" d="M542.6 485.6h-.8c-.2 0-.3.2-.3.3 0 .2.1.3.3.3h.8c.2 0 .3-.2.3-.3 0-.2-.1-.4-.3-.3z" id="path54" fill="#fff"/><path class="st4" d="M544.9 485.3l-.8.1c-.2 0-.3.2-.3.4s.2.3.3.3l.8-.1c.2 0 .3-.2.3-.4.1-.2-.1-.3-.3-.3z" id="path56" fill="#fff"/><path class="st4" d="M475.5 436.6c.2-.1.2-.3.1-.4l-.3-.7c-.1-.2-.3-.2-.4-.2-.2.1-.2.3-.2.4l.3.7.3.2h.2z" id="path58" fill="#fff"/><path class="st4" d="M491.9 449.2l.3-.2-.2-.4-.8-.2c-.2-.1-.3.1-.4.2l.2.4.9.2c-.1 0 0 0 0 0z" id="path60" fill="#fff"/><path class="st4" d="M496.6 449.8c.2 0 .3-.1.3-.3 0-.2-.1-.3-.3-.3h-.8c-.2 0-.3.1-.3.3 0 .2.1.3.3.3h.8z" id="path62" fill="#fff"/><path class="st4" d="M494.2 449.6c.2 0 .3-.1.3-.3 0-.2-.1-.3-.3-.4l-.8-.1c-.2 0-.3.1-.4.3 0 .2.1.3.3.4l.9.1z" id="path64" fill="#fff"/><path class="st4" d="M499.3 449.5c0-.2-.1-.3-.3-.3h-.8c-.2 0-.3.1-.3.3 0 .2.1.3.3.3h.8l.3-.3z" id="path66" fill="#fff"/><path class="st4" d="M489.6 448.5l.3-.2c.1-.2 0-.3-.2-.4l-.7-.3c-.2-.1-.3 0-.4.2-.1.2 0 .3.2.4l.8.3c-.1 0 0 0 0 0z" id="path68" fill="#fff"/><path class="st4" d="M483 445.4l.2.1.3-.1c.1-.1.1-.3-.1-.4l-.6-.4c-.1-.1-.3-.1-.4.1-.1.1-.1.3.1.4l.5.3z" id="path70" fill="#fff"/><path class="st4" d="M480.9 442.9a.3.3 0 0 0-.4 0c-.1.1-.1.3 0 .4l.6.5.2.1.2-.1c.1-.1.1-.3 0-.4l-.6-.5z" id="path72" fill="#fff"/><path class="st4" d="M501.6 449.2c0-.2-.2-.3-.4-.3l-.8.1c-.2 0-.3.2-.3.3 0 .2.2.3.3.3l.8-.1c.3.1.5-.1.4-.3z" id="path74" fill="#fff"/><path class="st4" d="M476.4 437.5c-.1-.2-.3-.2-.4-.1-.2.1-.2.3-.1.4l.4.7.3.1.2-.1c.1-.1.2-.3.1-.4l-.5-.6z" id="path76" fill="#fff"/><path class="st4" d="M479.2 441.3a.3.3 0 0 0-.4 0c-.1.1-.1.3 0 .4l.6.6.2.1.2-.1c.1-.1.1-.3 0-.4l-.6-.6z" id="path78" fill="#fff"/><path class="st4" d="M487.4 447.7l.3-.2c.1-.2 0-.3-.2-.4l-.7-.3c-.2-.1-.3 0-.4.2-.1.2 0 .3.2.4l.7.3h.1z" id="path80" fill="#fff"/><path class="st4" d="M478 440.6l.2-.1c.1-.1.2-.3 0-.4l-.5-.6c-.1-.1-.3-.2-.4-.1-.1.1-.2.3-.1.4l.5.6c.1.2.2.2.3.2z" id="path82" fill="#fff"/><path class="st4" d="M485.2 446.7l.3-.2c.1-.2 0-.3-.1-.4l-.7-.4c-.2-.1-.3 0-.4.1-.1.2 0 .3.1.4l.7.4.1.1z" id="path84" fill="#fff"/><path class="st4" d="M474.1 433.1c-.2.1-.3.2-.2.4l.3.8.3.2h.1c.2-.1.2-.2.2-.4l-.3-.7c-.1-.3-.2-.4-.4-.3z" id="path86" fill="#fff"/><path class="st4" d="M517.9 440.1a.3.3 0 0 0-.4 0l-.5.6c-.1.1-.1.3 0 .4l.2.1.2-.1.5-.6c.1-.1.1-.3 0-.4z" id="path88" fill="#fff"/><path class="st4" d="M515.7 442.9l.6-.6c.1-.1.1-.3 0-.4a.3.3 0 0 0-.4 0l-.6.5c-.1.1-.1.3 0 .4l.2.1c.1.1.1.1.2 0z" id="path90" fill="#fff"/><path class="st4" d="M514.1 443.5l-.6.5c-.1.1-.2.3-.1.4l.3.1.2-.1.6-.5c.1-.1.2-.3 0-.4a.3.3 0 0 0-.4 0z" id="path92" fill="#fff"/><path class="st4" d="M512.2 444.9l-.7.4c-.1.1-.2.3-.1.4l.3.1h.2l.7-.4c.1-.1.2-.3.1-.4-.1-.2-.3-.2-.5-.1z" id="path94" fill="#fff"/><path class="st4" d="M520.4 436.1c-.2-.1-.3 0-.4.1l-.4.7c-.1.2 0 .3.1.4h.2l.3-.2.4-.7-.2-.3z" id="path96" fill="#fff"/><path class="st4" d="M522 431.6l-.4.2-.2.8c0 .2 0 .3.2.4h.1l.3-.2.2-.8-.2-.4z" id="path98" fill="#fff"/><path class="st4" d="M510.2 446.1l-.7.4c-.2.1-.2.3-.1.4l.3.2h.1l.7-.4c.2-.1.2-.3.1-.4-.1-.2-.3-.3-.4-.2z" id="path100" fill="#fff"/><path class="st4" d="M518.8 438.3l-.4.7c-.1.1-.1.3.1.4l.2.1.3-.1.5-.7c.1-.1.1-.3-.1-.4-.3-.2-.5-.2-.6 0z" id="path102" fill="#fff"/><path class="st4" d="M504 448.8c0-.2-.2-.3-.4-.2l-.8.2c-.2 0-.3.2-.3.4s.2.3.3.3h.1l.8-.2c.2-.2.3-.3.3-.5z" id="path104" fill="#fff"/><path class="st4" d="M520.9 435.3l.3-.2.3-.7c.1-.2 0-.3-.2-.4-.2-.1-.3 0-.4.2l-.3.7c-.1.2 0 .3.2.4h.1z" id="path106" fill="#fff"/><path class="st4" d="M506.3 448.2c-.1-.2-.2-.3-.4-.2l-.8.2c-.2 0-.3.2-.2.4l.3.2h.1l.8-.2.2-.4z" id="path108" fill="#fff"/><path class="st4" d="M508.5 447.3c-.1-.2-.3-.2-.4-.2l-.7.3c-.2.1-.2.2-.2.4l.3.2h.1l.7-.3c.2-.1.3-.2.2-.4z" id="path110" fill="#fff"/><path class="st4" d="M467.2 561.5l-.7-.3c-.2-.1-.3 0-.4.2-.1.2 0 .3.2.4l.8.3h.1l.3-.2c0-.2-.1-.4-.3-.4z" id="path112" fill="#fff"/><path class="st4" d="M462.1 559.4c-.2-.1-.3 0-.4.1-.1.2 0 .3.1.4l.7.3h.1l.3-.2c.1-.2 0-.3-.2-.4l-.6-.2z" id="path114" fill="#fff"/><path class="st4" d="M471.8 562.8l-.8-.2-.4.2.2.4.8.2h.1l.3-.2-.2-.4z" id="path116" fill="#fff"/><path class="st4" d="M469.5 562.2l-.8-.2c-.2-.1-.3 0-.4.2-.1.2 0 .3.2.4l.8.2h.1l.3-.2c.1-.2 0-.3-.2-.4z" id="path118" fill="#fff"/><path class="st4" d="M478.7 564.3l-.8-.1c-.2 0-.3.1-.4.3 0 .2.1.3.3.4l.8.1h.1c.2 0 .3-.1.3-.3 0-.2-.1-.3-.3-.4z" id="path120" fill="#fff"/><path class="st4" d="M474.1 563.4l-.8-.2-.4.2.2.4.8.2h.1l.3-.2-.2-.4z" id="path122" fill="#fff"/><path class="st4" d="M465 560.7l-.7-.3c-.2-.1-.3 0-.4.2-.1.2 0 .3.2.4l.7.3h.1l.3-.2c.1-.2 0-.4-.2-.4z" id="path124" fill="#fff"/><path class="st4" d="M476.4 563.9l-.8-.2-.4.2.2.4.8.2h.1c.1 0 .3-.1.3-.3.1-.1 0-.3-.2-.3z" id="path126" fill="#fff"/><path class="st4" d="M481.1 564.7l-.8-.1c-.2 0-.3.1-.4.3 0 .2.1.3.3.4l.8.1c.2 0 .3-.1.3-.3l-.2-.4z" id="path128" fill="#fff"/><path class="st4" d="M518.8 563.9l-.8.1c-.2 0-.3.2-.3.4s.2.3.3.3h.1l.8-.1c.2 0 .3-.2.3-.4s-.2-.3-.4-.3z" id="path130" fill="#fff"/><path class="st4" d="M521.2 563.4l-.8.2c-.2 0-.3.2-.2.4l.3.3h.1l.8-.2c.2 0 .3-.2.2-.4-.1-.2-.3-.3-.4-.3z" id="path132" fill="#fff"/><path class="st4" d="M514.2 564.7l-.8.1c-.2 0-.3.2-.3.4s.2.3.3.3l.8-.1c.2 0 .3-.2.3-.4s-.2-.3-.3-.3z" id="path134" fill="#fff"/><path class="st4" d="M523.5 562.9l-.8.2c-.2 0-.3.2-.2.4l.3.2h.1l.8-.2c.2 0 .3-.2.2-.4-.1-.2-.3-.3-.4-.2z" id="path136" fill="#fff"/><path class="st4" d="M516.5 564.3l-.8.1c-.2 0-.3.2-.3.4s.2.3.3.3l.8-.1c.2 0 .3-.2.3-.4s-.1-.3-.3-.3z" id="path138" fill="#fff"/><path class="st4" d="M530.2 560.8l-.7.3c-.2.1-.2.2-.2.4l.3.2h.1l.7-.3c.2-.1.2-.2.2-.4s-.2-.3-.4-.2z" id="path140" fill="#fff"/><path class="st4" d="M531.5 560.6l.3.2h.1l.7-.3c.2-.1.2-.3.2-.4-.1-.2-.3-.2-.4-.2l-.7.3-.2.4z" id="path142" fill="#fff"/><path class="st4" d="M534 559.8h.1l.7-.4c.2-.1.2-.3.1-.4-.1-.2-.3-.2-.4-.1l-.7.4c-.2.1-.2.3-.1.4l.3.1z" id="path144" fill="#fff"/><path class="st4" d="M525.8 562.3l-.8.2c-.2 0-.3.2-.2.4l.3.2h.1l.8-.2c.2 0 .3-.2.2-.4-.1-.2-.3-.3-.4-.2z" id="path146" fill="#fff"/><path class="st4" d="M511.8 565l-.8.1c-.2 0-.3.2-.3.4s.2.3.3.3l.8-.1c.2 0 .3-.2.3-.4.1-.2-.1-.3-.3-.3z" id="path148" fill="#fff"/><path class="st4" d="M528 561.5l-.8.2c-.2.1-.3.2-.2.4l.3.2h.1l.8-.2c.2-.1.3-.2.2-.4l-.4-.2z" id="path150" fill="#fff"/><path class="st4" d="M492.9 565.7h-.8c-.2 0-.3.1-.3.3 0 .2.1.3.3.3h.8c.2 0 .3-.1.3-.3l-.3-.3z" id="path152" fill="#fff"/><path class="st4" d="M483.4 565l-.8-.1c-.2 0-.3.1-.4.3 0 .2.1.3.3.4l.8.1c.2 0 .3-.1.3-.3.1-.2 0-.4-.2-.4z" id="path154" fill="#fff"/><path class="st4" d="M490.5 565.6h-.8c-.2 0-.3.1-.3.3 0 .2.1.3.3.3h.8c.2 0 .3-.1.3-.3 0-.1-.1-.3-.3-.3z" id="path156" fill="#fff"/><path class="st4" d="M485.8 565.2l-.8-.1c-.2 0-.3.1-.3.3 0 .2.1.3.3.3l.8.1c.2 0 .3-.1.3-.3l-.3-.3z" id="path158" fill="#fff"/><path class="st4" d="M495.2 565.8h-.8c-.2 0-.3.1-.3.3 0 .2.1.3.3.3h.8c.2 0 .3-.1.3-.3.1-.2-.1-.3-.3-.3z" id="path160" fill="#fff"/><path class="st4" d="M488.1 565.4l-.8-.1c-.2 0-.3.1-.3.3 0 .2.1.3.3.3l.8.1c.2 0 .3-.1.3-.3l-.3-.3z" id="path162" fill="#fff"/><path class="st4" d="M504.7 565.6h-.8c-.2 0-.3.2-.3.3 0 .2.1.3.3.3h.8c.2 0 .3-.2.3-.3.1-.2-.1-.3-.3-.3z" id="path164" fill="#fff"/><path class="st4" d="M497.6 565.8h-.7c-.2 0-.3.1-.3.3 0 .2.1.3.3.3h.8c.2 0 .3-.1.3-.3-.1-.2-.3-.3-.4-.3z" id="path166" fill="#fff"/><path class="st4" d="M509.5 565.2l-.8.1c-.2 0-.3.2-.3.3 0 .2.2.3.3.3l.8-.1c.2 0 .3-.2.3-.3l-.3-.3z" id="path168" fill="#fff"/><path class="st4" d="M507.1 565.4l-.8.1c-.2 0-.3.2-.3.3 0 .2.2.3.3.3l.8-.1c.2 0 .3-.2.3-.3 0-.1-.1-.3-.3-.3z" id="path170" fill="#fff"/><path class="st4" d="M502.4 565.7h-.8c-.2 0-.3.2-.3.3 0 .2.1.3.3.3h.8c.2 0 .3-.2.3-.3 0-.2-.1-.3-.3-.3z" id="path172" fill="#fff"/><path class="st4" d="M500 565.8h-.8c-.2 0-.3.1-.3.3 0 .2.1.3.3.3h.8c.2 0 .3-.1.3-.3 0-.2-.1-.3-.3-.3z" id="path174" fill="#fff"/></g><path class="st4" d="M458.2 561.2s1.5.8 3.8-13.1c2.3-13.8-.8-58.8-.8-58.8s-5.8 1.2-9.6.8a99.2 99.2 0 0 1-18.1-9.2s5.4-8.8 7.3-15.4c1.9-6.5 1.4-16.4 5.4-21.5 5.4-6.9 31.5-15 31.5-15s3.1 14.2 15.8 15c12.7.8 11.9.8 16.9-3.5 5-4.2 6.5-11.9 6.5-11.9l24.6 9.6s2.7-.4 5.8 4.2c3.1 4.6 5 16.5 6.5 22.3 1.5 5.8 7.3 15.4 7.3 15.4s-4.2 6.9-11.2 8.1c-6.9 1.2-15 1.2-15 1.2s-.7 15-1.5 25.8c-.7 10-.4 32.3.3 36.9.7 4.6 2.3 9.6 2.3 9.6s-18.1 8.5-28.1 8.8c-10 .4-30.4-2.3-34.6-3.1a116 116 0 0 1-15.1-6.2z" id="path178" fill="#fff"/></g></svg>