<svg xmlns="http://www.w3.org/2000/svg" viewBox="-449 438 70.7 100.1" width="70.7" height="100.1"><path d="M-382.6 467.9a4.3 4.3 0 0 1-1.1-5l.7-1.6c1-2.5-.3-5.3-2.9-6l-1.7-.5a4.4 4.4 0 0 1-3.2-4l-.1-1.8a4.5 4.5 0 0 0-5.2-4.2l-1.7.4c-1.9.3-3.7-.6-4.6-2.3l-.8-1.5a4.5 4.5 0 0 0-6.5-1.5l-1.4 1a4.5 4.5 0 0 1-5.2 0l-1.4-1a4.4 4.4 0 0 0-6.5 1.5l-.8 1.5a4.3 4.3 0 0 1-4.7 2.2l-1.7-.3a4.4 4.4 0 0 0-5.2 4.1l-.1 1.7a4.4 4.4 0 0 1-3.2 4l-1.7.5a4.4 4.4 0 0 0-2.9 6l.7 1.6c.7 1.8.3 3.8-1.2 5l-1.3 1.1c-2 1.8-2 4.9 0 6.6l1.3 1.2a4.3 4.3 0 0 1 1.1 5l-.7 1.6c-1 2.5.3 5.3 2.9 6l1.7.5c1.8.5 3.1 2.1 3.2 4l.1 1.7a4.5 4.5 0 0 0 5.2 4.2l1.7-.3c1.9-.3 3.7.6 4.6 2.3l.8 1.5c1.3 2.3 4.3 3 6.5 1.5l1.4-1a4.5 4.5 0 0 1 5.2 0l1.4 1c2.2 1.6 5.2.9 6.5-1.5l.8-1.5a4.3 4.3 0 0 1 4.7-2.2l1.7.3c2.6.5 5.1-1.5 5.2-4.1l.1-1.7a4.4 4.4 0 0 1 3.2-4l1.7-.5a4.4 4.4 0 0 0 2.9-6l-.7-1.5a4.3 4.3 0 0 1 1.2-5l1.3-1.1c2-1.8 2-4.9 0-6.6zm-31.2 24.6c-11.2 0-20.2-9-20.2-20.2s9-20.2 20.2-20.2a20.2 20.2 0 0 1 0 40.4zm12.1-22.9l-5.6 4.5 1.7 6.9c.2 1-.5 1.9-1.4 1.9l-.8-.2-6.1-3.7-6 3.7c-.3.2-.5.2-.8.2-.9 0-1.7-.8-1.4-1.9l1.7-6.9-5.5-4.5c-1-.9-.4-2.6.9-2.6l7.1-.5 2.7-6.6c.3-.6.8-.9 1.4-.9.6 0 1.1.3 1.4.9l2.7 6.6 7.1.5c1.3.1 1.9 1.7.9 2.6zm-18.8 42.6c1.1 0 2.1-.2 3.2-.5l-8.7 21.2c-.3.7-.9 1.2-1.6 1.4l-9.7 2.6c-1 .3-2.1-.2-2.6-1.1l-5.1-8.6c-.4-.7-.5-1.5-.2-2.2l8.1-19.7c1.1.5 2.3.9 3.6 1.1l-6.9 16.9c-.3.8-.3 1.6.2 2.3l3.1 5.4c.2.3.7.3.8-.1l8.8-21.4c1.8 1.7 4.4 2.7 7 2.7zm38.1 12.8c.3.7.2 1.5-.2 2.2l-5.1 8.6c-.5.9-1.6 1.3-2.6 1.1l-9.7-2.5c-.7-.2-1.3-.7-1.6-1.4l-8.7-21.2c1 .3 2 .5 3 .5l1.1-.1 6.7 16.2c.3.8 1 1.3 1.8 1.5l6 1.6c.4.1.7-.3.5-.6l-8.9-21.5c1-.8 1.8-1.8 2.4-3l.1-.2h.2l1.9.2c1.8 0 3.4-.4 4.9-1.2z"/></svg>