<svg xmlns="http://www.w3.org/2000/svg" width="275.6" height="275.6"><circle cx="137.8" cy="137.8" r="132.8" stroke="#ff7300" stroke-width="10" stroke-miterlimit="10"/><path d="M88.2 147.4c-12.6 1.2-12 6.6-22.8 20.4-1.8 3-1.2 4.2 0 7.2.6 6.6 1.8 12.6 2.4 19.2.6 2.4 0 3 2.4 3-1.2 1.8-1.8 1.8-.6 3 2.4 2.4 2.4 3 5.4 3 9.6 0 8.4.6 2.4-9a100 100 0 0 1-3.6-19.2c-.6-1.8.6-3.6 1.8-4.8-.6 0-2.4-.6-3-2.4 1.2 1.2 1.8 1.8 3 1.8 1.2 3.6 2.4 0 3 .6 3.6 3.6 1.2-3 3.6-1.2 3.6 3.6 1.2-1.2 3.6-1.2 3 .6 4.2-1.2 3-4.8 3-2.4 6.6-4.8 9.6-7.2a126 126 0 0 0 47.9 3.6c0 7.8 4.2 16.8 3 22.8-.6 4.2-1.8 12-1.2 14.4 0 1.2.6.6 1.2 1.8 1.2 1.2-1.8 6 3 6.6 10.8 0 10.2 1.2 5.4-8.4-1.8-2.4-1.2-10.2-.6-14.4 0-3.6 1.8-6 3-9.6 3-5.4 6-18 7.2-24 .6 3-3 16.2-6 24.6 1.2 3 2.4 4.8 2.4 8.4 0 4.8 0 12 .6 14.4.6 1.2 1.2 0 1.8 1.2 1.2 1.2-.6 6.6 4.2 6 10.8-1.8 10.2-.6 3.6-9-1.8-1.8-2.4-9-3-13.8-.6-6.6 4.2-14.4 4.8-22.2 10.2-.6 9-12 16.8-17.4 4.8-3 7.2-9 8.4-15.6 8.4.6 15-3 24.6-1.8 7.2.6 8.4-7.8 3.6-12.6-3.6-4.2-6-7.8-10.2-11.4 0-4.2-1.8-7.2-6.6-9v-3.6a9 9 0 0 0 3.6-9c-1.8 3-4.8 4.8-9.6 5.4 1.2-1.8 1.2-3.6.6-4.8-2.4 3-6.6 4.2-9 6.6-17.4 16.2-21 10.8-45.5 13.8a256 256 0 0 1-77.3-2.4c-40.7-9-22.2 27-27.6 53.9-6 6-6 15.6-4.8 18.6 10.2-15 6.6-15 7.2-18.6.6-4.2 1.8-36.6 3.6-38.3-1.2 9-1.2 18.6-.6 27.6.6 15.6-6.6 20.4-3.6 37.2.6 6 .6 12 .6 17.4 0 3-.6 4.8 1.8 4.8-1.2 1.8-1.8 1.8-.6 3.6 1.8 2.4 1.8 3 4.8 3 10.2 0 9 1.2 3-8.4a39 39 0 0 1 0-20.4c1.8-4.8 9-13.2 13.8-20.4 4.7-6.6 7.7-9.6 15.5-9zm122.2-48.5c-.6 0 1.2 0 1.2.6-.6 1.8 1.8 1.8 1.8 1.8.6-.6 1.2.6 1.2.6-.6-1.8-3-3.6-4.2-3z" fill="#fff"/></svg>