<svg xmlns="http://www.w3.org/2000/svg" id="svg15" width="275.6" height="275.6"><style id="style2">.st1{display:none}.st2{display:inline;fill:#fff}</style><g id="Calque_1" transform="translate(-362.5 -362.7)"><circle id="XMLID_1_" cx="500.3" cy="500.5" r="132.8" stroke="#7400ff" stroke-width="10" stroke-miterlimit="10"/></g><g id="Calque_6" transform="translate(-362.5 -362.7)"><path id="XMLID_5_" d="M504.4 415.4c-4.7 5.1-8 11.8-9.6 20.3a53.4 53.4 0 0 0-45.7-.3c23.8 11.8 39.2 37.8 21.4 73.5 17.2 43.8-6 60.2-23.8 71.2a52 52 0 0 0 52.7 1.3 54.8 54.8 0 0 0 55.1-1.8C532.1 569 511.3 543 530.7 509c-19.8-40.4-2.5-60.3 20.4-73.6a62.3 62.3 0 0 0-44.5 1c1.3-6 3.4-9.9 6.8-13.7 3.4-3.8 9.1-6.8 16-9.3-.4-4.4-2.1-7.6-4.5-9.3a42.4 42.4 0 0 0-20.5 11.3z" fill="#fff"/></g></svg>