<svg xmlns="http://www.w3.org/2000/svg" id="Calque_1" width="275.6" height="275.6"><style id="style2">.st1{fill:#fff}</style><circle id="XMLID_1_" cx="137.8" cy="137.8" r="132.8" stroke="#00b1ff" stroke-width="10" stroke-miterlimit="10"/><g id="Calque_2" transform="translate(-362.5 -362.7)"><path class="st1" d="M541.5 493.5a62.7 62.7 0 0 0-42.7-12.2L482 472c0 4.5 1.3 9 2.4 12.1-9.7 2.6-18.1 5.9-25.4 5.9l-16-10c0 8 4 16 4 16s-4 8-4 16l16-10c7.3 0 15.7 3.3 25.4 5.9A37.6 37.6 0 0 0 482 520l16.8-9.3a62.7 62.7 0 0 0 42.7-12.2c2-2 2-3 0-5zm-13 2.5a2.5 2.5 0 0 1-2.5-2.5c0-1.4 1.1-2.5 2.5-2.5s2.5 1.1 2.5 2.5-1.1 2.5-2.5 2.5z" id="path5" fill="#fff"/><path class="st1" d="M596.6 493.7c-4-4-35.4-25.3-73.8-25.3-4.3 0-8.5.3-12.6.7l-33.9-18.8a76 76 0 0 0 4.8 24.4c-19.6 5.3-36.6 11.9-51.3 11.9l-32.3-20.2c0 16.2 8.1 32.3 8.1 32.3s-8.1 16.2-8.1 32.3l32.3-20.2c14.7 0 31.7 6.7 51.3 11.9a76 76 0 0 0-4.8 24.4l33.9-18.8c4.1.4 8.3.7 12.6.7 38.4 0 69.7-21.2 73.8-25.3 4.1-3.9 4-6 0-10zm-26.2 5.1a5.1 5.1 0 0 1-5.1-5.1c0-2.8 2.3-5.1 5.1-5.1s5.1 2.3 5.1 5.1a5.3 5.3 0 0 1-5.1 5.1z" id="path7" fill="#fff"/></g></svg>