<svg xmlns="http://www.w3.org/2000/svg" id="svg188" width="275.6" height="275.6"><style id="style2">.st1{display:none}.st2{fill:#fff}.st2,.st3{display:inline}.st4{fill:#fff}</style><g id="Calque_1" transform="translate(-362.5 -362.7)"><g id="Calque_1_2_"><g id="Calque_1_1_"><circle id="XMLID_1_" cx="500.3" cy="500.5" r="132.8" stroke="#7400ff" stroke-width="10" stroke-miterlimit="10"/></g></g></g><g id="Calque_2_1_" transform="translate(-362.5 -362.7)"><g id="Calque_7"><g id="g184"><path class="st4" d="M568 476.4v7.2c0 1.2.2 2 1.2 2.8 3.2 2.6 6.1 5.6 8.6 8.9 1.6 2.1 3.3 4.1 4.7 6.3 1.3 2 2.3 4.2 3.4 6.4.5 1 1.1 2.1 1.5 3.2l1.5 4.5a46 46 0 0 1-.8 27.7 28 28 0 0 1-5.4 8.9 35 35 0 0 1-17.8 11.1c-.4.1-.9.2-1.2.5l-7.3 5.5c-3.8 3-8.1 5.2-12.5 7-2.5 1-5.1 2.1-7.8 2.7-5.8 1.4-11.7 1.9-17.6 1.4-3.2-.3-6.4-.6-9.4-1.3-3.5-.9-7-2.3-10.4-3.6-1.9-.7-3.7-1.5-5.5-2.4-1.8-.9-3.5-2.1-5.3-3.2-1.2-.8-2.3-1.8-3.6-2.4-.7-.4-1.6-.5-2.4-.3-1.8.5-3.5 1.2-5.3 1.8l-.3.1a74.6 74.6 0 0 1-24 1.9c-2.3-.3-4.4-1.1-6.7-1.5-3.5-.7-6.6-2.4-9.8-4-5.1-2.5-9.5-6-12.8-10.6-1.5-2.1-2.4-4.6-3.7-6.8-1.5-2.5-1.9-5.3-2.4-8.1a44.7 44.7 0 0 1 .6-14.6c.5-2.6.1-5.1-.3-7.7-.9-6-1-12 0-18 .4-2.4.7-4.8 1.3-7.1.7-2.5 1.7-5 2.6-7.4.8-2 1.8-4 2.8-5.9 1.1-1.9 2.2-3.9 3.5-5.7 1.1-1.5 2.5-2.9 3.8-4.3 2.7-2.7 5.4-5.5 8.4-7.9 3.1-2.4 6.5-4.4 9.8-6.5l5-2.8c.9-.5 1.3-1.3 1.5-2.4.6-3.5 1.3-7.1 2.7-10.4.9-2.2 1.5-4.4 2.5-6.5.9-2.1 2.1-4 3.2-6a46 46 0 0 1 9.1-11c2-1.9 4.4-3.4 6.8-5 1.9-1.2 3.9-2.4 6-3.3a24 24 0 0 1 9.6-2.6c3 .1 5.9-.1 8.9.1a42.9 42.9 0 0 1 15.4 6.5c1.6 1.3 3 2.8 4.5 4.1.7.6 1.5 1 2.3 1.3 4.5 1.5 8.7 3.5 12.6 6a52.5 52.5 0 0 1 23.6 27.4c.9 2.3 1.8 4.6 2.5 6.9.6 1.9.8 3.9 1.2 5.8 1.2 4.4 1.3 8.8 1.2 13.3zm-13.5 23.4h.3l.2-.6c-.1-2.4.1-4.8-.2-7.1-.4-3.3-1.2-6.5-1.8-9.8l-.8-3.1a201 201 0 0 0-4.1-12.4c-.8-1.9-1.5-3.9-2.4-5.8-1-2.2-2.2-4.4-3.4-6.5-.8-1.6-1.6-3.3-2.6-4.8-1-1.7-2.1-3.3-3.3-4.9-2.8-3.7-5.4-7.5-8.4-11a65.3 65.3 0 0 0-10.8-10.2c-.8-.6-1.6-1.4-2.5-1.9-2.8-1.6-5.5-3.4-8.5-4.6a32.3 32.3 0 0 0-12.6-2.6c-3.2.1-6.3.5-9.2 2l-2.2 1.1c-1.7 1.1-3.5 2.1-5 3.4a38.6 38.6 0 0 0-7.6 8.5c-1.5 2.3-3 4.6-4.2 7-1.3 2.4-2.3 4.8-3.4 7.3l-2.2 6.3.1.3c14.7-5.9 29.9-7.8 45.6-7.4a7 7 0 0 1-2.1 1.4c-2.4 1.2-4.9 2.2-7.2 3.5a25.6 25.6 0 0 0-6.1 5.3 53.1 53.1 0 0 0-6.1 8.8l-1.1 2.1-2.4 5.2-2.3 5.1-3.4 9-2.7 6.3-1 2.3c-1.1 2.4-2.1 4.9-3.4 7.2-1.3 2.4-3 4.7-4.5 7a45.3 45.3 0 0 1-17.8 15.3c-3.1 1.4-6.4 2.5-9.6 3.6-1.3.4-1.8-.1-1.5-1.4l1.1-4.6.7-2.5 1.4-4.2 2.3-7.1c.4-1.2 1-2.3 1.5-3.4 1.5-3.2 2.9-6.5 4.5-9.6A127.2 127.2 0 0 1 456 476c1.5-2.1 3.3-4.1 4.9-6.2a72 72 0 0 1 11.7-11.7c.8-.6 1.5-1.4 2.2-2.1l-.2-.2-.5.2c-2.8 2-5.7 3.8-8.4 6-2.8 2.3-5.4 4.8-8 7.3a57.7 57.7 0 0 0-4.2 4.4l-2.9 3.7c-1.1 1.4-2.2 2.7-3.2 4.2a99.9 99.9 0 0 0-4.5 6.8l-4.4 7.6-1 1.9-2.4 5.7-2.5 5.9c-.4.9-.8 1.7-1 2.6-.6 3-2 5.8-2.2 9-.3 3-1.3 5.9-1.6 8.9-.4 4.4-.1 8.9.9 13.2.3 1.4.5 2.9 1.1 4.1 1.1 2.4 2 4.9 3.7 6.9 1.4 1.6 2.7 3.4 4.4 4.7 1.8 1.4 3.9 2.4 6 3.5a26 26 0 0 0 10.2 2.9l2.5.3c3.1.1 6.2.4 9.2.2 4.2-.3 8.4-1 12.5-1.5.3 0 .5-.2.7-.4.1-.1-.2-.5-.3-.6l-2-1.8a108.5 108.5 0 0 1-22.3-26.3c-1.4-2.2-2.6-4.5-3.8-6.8l-.2-1.2 1 .6c1.8 1.7 3.7 3.3 5.9 4.5a42.5 42.5 0 0 0 17.3 4.9c7.9.4 15.6-1.3 23.4-2.1l.3-.1c3.7-.6 7.4-1.4 11.1-1.6 5.1-.3 10.2-.3 15.3-.3 2.2 0 4.4.5 6.6.9 1.7.3 3.4.7 5 1.3l6.7 2.5c1.5.7 2.8 1.7 4.1 2.5 3.5 2.2 6.6 4.8 9.3 7.8.6.7.5 1.1-.3 1.4-2.7.9-5.3 1.9-8 2.5a152 152 0 0 1-39 3.3 93.9 93.9 0 0 1-17.5-2.8c-1.9-.5-3.8-.8-5.7-1.4l-3.6-1.4-2.8-1.2c-.5-.2-1.1-.1-1.6-.1l-.1.3.8.5c1.7.8 3.3 1.7 5 2.4l6.5 2.6 4.5 1.3a787 787 0 0 0 8.3 2c2.2.5 4.4 1.1 6.7 1.4 2.7.3 5.4.3 8.1.5 5.3.4 10.5.3 15.7-.1 4.7-.4 9.4-.8 14-1.9 2.1-.5 4.3-.9 6.4-1.5l5.9-2c1.1-.4 2.2-.8 3.3-1.4 2-1 3.9-2.2 5.9-3.3a32.6 32.6 0 0 0 13.4-14.7c.5-1.3 1.1-2.6 1.4-4a38.4 38.4 0 0 0-.2-13.2c-1.1-3.1-1.8-6.4-3.5-9.3-1.2-2.2-2.3-4.6-3.7-6.7-2.1-3.1-4.4-6.1-6.6-9.1-.6-.9-1.4-1.7-2.1-2.5l-.4.1c-2.3 15.7-8 30-16.3 43.3l-.6-.1c0-.6 0-1.2.2-1.7.2-.7.5-1.4.6-2.2a35 35 0 0 0-1.4-14.4c-.7-2.2-1.8-4.2-2.6-6.3-1.3-3.3-3.4-6.1-5.3-9-1.8-2.7-3.8-5.3-5.8-7.9l-4.8-6c-2.3-3-4.6-5.9-6.7-8.9a75.1 75.1 0 0 1-6.4-11 49.9 49.9 0 0 1-2.7-35.5c.2-.6.4-1.1 1.1-.5l1.9 1.8a180.5 180.5 0 0 1 12.2 13.6 291.4 291.4 0 0 1 9.1 13.2c1.1 1.8 1.9 3.6 2.9 5.5 1.7 3.4 3.5 6.7 4.9 10.2 1.1 2.7 2.4 5.3 3 8.2.5 2.6 1.8 5 2.4 7.6.7 2.8.9 5.7 1.4 8.5l.2 1.6z" id="path182" fill="#fff"/></g></g></g></svg>