<svg xmlns="http://www.w3.org/2000/svg" width="527.1" height="184.2"><g fill="#fff"><path d="M134.6 108.4a67 67 0 0 1-62.2 41.1 67 67 0 0 1-24.6-4.6l13.4-31.4 2.4 15.4a3 3 0 1 0 2-.4L62.7 111l20 17.6a3 3 0 1 0 1.3-1.4L63.6 109l37.2-7.6-.4 9.3a3 3 0 1 0 2 0l.3-7.6 9.5 12.9a3 3 0 1 0 1.6-1.2l-9.3-12.6 14.2 5.1a3 3 0 1 0 .7-1.8l-14.4-5.2 20.7-3.8a3 3 0 1 0-.3-1.9l-19.9 3.6 11-9.8a3 3 0 1 0-1.4-1.5L104 97l5.7-16.5a3 3 0 1 0-1.9-.6l-6 17.5-2.3-6a3 3 0 1 0-1.9.7l3 7.4-36 7.5 13.3-13.6a3 3 0 1 0-1.4-1.4L66 102.6l16-37.5 31.8 2.5a3 3 0 1 0 .2-2l-26.1-2 29.2-6.2a3 3 0 1 0-.4-2l-30 6.4 25-14.8a3 3 0 1 0-1-1.7L85 60.3l17.7-21.7a3 3 0 1 0-1.5-1.2L85.3 57l15.5-36.2A67 67 0 0 1 140 82a67 67 0 0 1-5.4 26.3zM24 129a67.3 67.3 0 0 1 1.4-95.4 67.3 67.3 0 0 1 72.7-14L82.4 56.5 84 30a3 3 0 1 0-2-.1l-1.8 28.5L72 30a3 3 0 1 0-1.9.5l8 27.4-15.9-24.4a3 3 0 1 0-1.6 1l16 24.8-20-16.5a3 3 0 1 0-1.3 1.6l24 19.5L62 104.1l-.8-10a3 3 0 1 0-2 .2l.9 11-12.9-16 3-7.2a3 3 0 1 0-1.9-.7l-2.5 6-8.1-10.1 13.1-16.6a3 3 0 1 0-1.5-1.2L39.2 72.4l5.4-15.7a3 3 0 1 0-1.9-.6L37 72.7l-2.1-18a3 3 0 1 0-2 .2L35 73 25.5 58a3 3 0 1 0-1.7 1l9.7 15.3-12.2-7a3 3 0 1 0-1 1.7l12.8 7.4-13.4.3a3 3 0 1 0 0 2l16.3-.4 8 10-6.3-1.1a3 3 0 1 0-.3 1.9l8.4 1.4 12.7 16-11.5-3.9a3 3 0 1 0-.6 1.9l11.4 3.8-13.4 3.2a3 3 0 1 0 .4 2l13.4-3.3-12.4 12a3 3 0 1 0 1.4 1.5l11.2-11-13.3 31A67 67 0 0 1 24 129zm115.6-74.2a72.2 72.2 0 0 0-36.9-38.6l3.2-7.5h.3a4.4 4.4 0 1 0-3-1.1L100 15a72 72 0 0 0-78 15 72 72 0 0 0-16.7 79.1 72.2 72.2 0 0 0 38 39l-1.7 3.8-3.9 8.6-12 1.8a3 3 0 1 0 .2 1.9l11-1.6-5.6 13a4.2 4.2 0 1 0 2.8 1.4l5.5-13 3.3 8.6a3 3 0 1 0 1.8-.8l-4-10.4 5.2-12a71.9 71.9 0 0 0 77-15.5 72 72 0 0 0 16.7-79.2M181.3 85.8c9.7 0 16.8-7 16.8-16.5S191 53 181.3 53c-9.6 0-16.8 7-16.8 16.4 0 9.5 7.2 16.5 16.8 16.5zm0-38.6c14.2 0 23.2 10.1 23.2 22.1 0 11.7-8.7 22.2-23.3 22.2a22 22 0 0 1-23-22.2c0-12 9.1-22.1 23.1-22.1M252 91h-5.3L218 57.6v33.2H212V47.8h4.9l29.2 33.4V47.8h5.8v43.1M283.5 53.3h-18.3v13h17.6V72h-17.6v13.4H284V91h-25V47.8h24.5v5.5M344 53.3h-14.8V91H323V53.3h-15v-5.5h36v5.5M356.2 66.6h4c6.7 0 8.6-3.4 8.5-7 0-4-2.5-6.5-8.5-6.5h-4zm4.7-18.8c8.7 0 14.2 4.6 14.2 12 0 5-2.6 8.8-7.2 10.6 3.9 2.6 6.3 6.6 9.6 12 1.8 3 3 4.4 5.9 8.5H376l-5.7-8.8c-5.7-9-8.3-10-11.5-10h-2.6V91H350V47.8h11M412.6 53.3h-18.3v13H412V72h-17.7v13.4h18.9V91h-25V47.8h24.4v5.5M443 53.3h-18.3v13h17.6V72h-17.6v13.4h18.8V91h-25V47.8H443v5.5M181.3 141.3c9.7 0 16.8-7 16.8-16.4 0-9.5-7.1-16.5-16.8-16.5-9.6 0-16.8 7-16.8 16.5 0 9.4 7.2 16.4 16.8 16.4zm0-38.6c14.2 0 23.2 10.2 23.2 22.2 0 11.6-8.7 22.1-23.3 22.1a22 22 0 0 1-23-22.1c0-12 9.1-22.2 23.1-22.2M252 146.5h-5.3L218 113.2v33.3H212v-43.2h4.9l29.2 33.4v-33.4h5.8v43.2M283.5 108.9h-18.3v13h17.6v5.6h-17.6v13.4H284v5.6h-25v-43.2h24.5v5.6M314.1 122.2h7c4.6 0 7.6-2.4 7.6-6.7 0-3.2-1.7-6.6-7.3-6.6H314zm7.3-18.9c9.4 0 13.7 5.6 13.7 12.4 0 6.8-4.6 12-14.5 12H314v18.8h-6.2v-43.2h13.5M346.6 140.9h19.5v5.6h-25.7v-43.2h6.2v37.6M383.4 128.2H397l-7-15.7zm28 18.3h-6.3l-5.7-12.8H381l-5.4 12.8h-6.3l18.5-43.5h4.4l19.3 43.5M456.1 146.5h-5.3L422 113.2v33.3H416v-43.2h5l29.2 33.4v-33.4h5.8v43.2M486.3 108.9H468v13h17.7v5.6H468v13.4H487v5.6h-25v-43.2h24.4v5.6M527.1 108.9h-15v37.6H506v-37.6h-15v-5.6h36.1v5.6"/></g></svg>