<?xml version="1.0" encoding="UTF-8" standalone="no"?>
<svg
   xmlns:dc="http://purl.org/dc/elements/1.1/"
   xmlns:cc="http://creativecommons.org/ns#"
   xmlns:rdf="http://www.w3.org/1999/02/22-rdf-syntax-ns#"
   xmlns:svg="http://www.w3.org/2000/svg"
   xmlns="http://www.w3.org/2000/svg"
   xml:space="preserve"
   id="Layer_1"
   viewBox="0 0 594.03643 159.0248"
   height="47.14682"
   width="77.277771"
   version="1.0"><metadata
     id="metadata4793"><rdf:RDF><cc:Work
         rdf:about=""><dc:format>image/svg+xml</dc:format><dc:type
           rdf:resource="http://purl.org/dc/dcmitype/StillImage" /><dc:title></dc:title></cc:Work></rdf:RDF></metadata><defs
     id="defs859" /><g
     transform="rotate(90,308.04361,119.46024)"
     id="g5338"><path
       d="m 132.46534,427.10202 c -0.77639,-23.87592 1.20571,-42.66025 2.44332,-66.46698 0.27674,-5.16568 -7.14893,-8.44805 -8.12519,-11.52286 -6.57241,-20.79341 -21.9849,6.54935 -24.24489,13.89046 -3.682081,11.93027 -5.849821,25.42869 -5.749898,37.95087 0.122998,14.89745 -8.647976,11.45744 -3.712913,26.01666"
       style="fill:#0d1516;stroke:#000000;stroke-width:3.32485747;fill-opacity:1"
       id="path141" /><path
       d="m 99.980567,-165.39319 c -7.490704,31.47907 -5.336407,84.90169 56.897623,150.117138 61.5731,64.509547 219.14951,102.122179 256.42392,158.514222 17.93383,27.11984 20.93946,-6.54166 21.59286,-18.29513 0.63802,-11.4921 5.94208,-35.291146 -38.7042,-59.528349 -52.15648,-28.311327 -191.36089,-105.87345 -191.36089,-105.87345 0,0 -78.75377,-46.44672 -90.74254,-124.963571 m 294.12595,556.13671 c 17.93384,27.11984 20.93946,-6.54166 21.59287,-18.30281 0.63801,-11.49212 5.94207,-35.27578 -38.70419,-59.51299 -52.1565,-28.31132 -191.36091,-105.88113 -191.36091,-105.88113 0,0 -99.5009,-58.67509 -91.85231,-155.639274 0,0 -56.868635,75.225264 43.90063,180.821984 61.5731,64.51723 219.14951,102.1145 256.42391,158.51422 z"
       style="fill:#0d1516;stroke:#000000;stroke-width:3.32485747;fill-opacity:1"
       id="path133" /><path
       d="m 244.47957,99.721905 c 0,0 139.16597,5.934385 139.5657,5.949755 7.07207,0.29979 20.65504,-3.29005 20.77804,-12.183939 0.21524,-16.457929 -32.95429,-13.290873 -43.24723,-13.729034 -18.32587,-0.814825 -36.65175,-1.62965 -54.97762,-2.429101 -5.18106,-0.222924 -68.58368,0.484282 -69.64449,-3.074812 l 7.5256,25.467131 z m 28.28058,-224.384375 139.68869,0 11.48442,0 c 0,0 3.82814,4.78901 8.13288,-8.13288 4.30474,-12.9219 1.43748,-16.75004 1.43748,-16.75004 l -169.34525,-0.2306 8.60178,25.11352 z m -12.43761,47.844064 13.3985,-13.390805 104.28223,-19.140699 c 0,0 24.87522,12.43761 15.31255,22.007962 -9.56265,9.57035 -13.87508,5.265614 -13.87508,5.265614 l -105.82733,15.896776 -13.29087,-10.638848 z m 4.80439,223.438876 151.04243,-0.51503 10.09307,10.09306 -10.47742,10.47742 -147.82156,3.35155 c 0,0 -10.52354,2.02169 -10.52354,-10.52354 0,-12.54523 7.68702,-12.88346 7.68702,-12.88346 z m -2.30611,64.62484 90.39946,-17.21125 -5.83445,18.09527 -19.13301,11.47673 -61.32713,4.28936 c 0,-0.008 -11.30762,-12.49911 -4.10487,-16.65011 z m 3.50529,-193.551695 c 10.96939,4.858202 67.7919,13.14482 54.03212,33.400141 -9.50884,14.005767 -40.16472,-6.656967 -50.73438,-11.238437 -6.00358,-2.598215 -13.04489,-4.52766 -18.53343,-7.925326 8.14825,-1.537406 10.27755,-12.406865 6.3956,-18.81016 2.85189,1.721895 5.8114,3.228552 8.84009,4.573782 z m -12.207,330.788235 c 0,0 123.73042,5.92669 124.08402,5.94976 6.28799,0.29979 18.36432,-3.29774 18.47193,-12.18394 0.19218,-16.45794 -29.30296,-13.29088 -38.45052,-13.73673 -16.2965,-0.80713 -32.58531,-1.62195 -48.88181,-2.42141 -4.61222,-0.23061 -60.9812,0.48428 -61.91902,-3.07481 l 6.6954,25.46713 z m 18.41812,58.82114 135.74524,0 11.16157,0 c 0,0 3.71283,4.78902 7.90226,-8.14056 4.18174,-12.90652 1.39136,-16.74235 1.39136,-16.74235 l -164.56392,-0.2383 8.36349,25.12121 z"
       style="fill:#7dff00;stroke:#000000;stroke-width:3.32485747"
       id="path139" /><path
       d="m 113.93845,-124.66247 163.61073,0 c 0,0 8.13286,1.91407 8.13286,-8.13288 0,-10.04695 -6.93369,-16.98064 -6.93369,-16.98064 l -173.41937,0 c -0.008,0 -10.577361,13.66753 8.60947,25.11352 z m 159.67496,58.475225 c -0.48428,1.506658 -15.94289,3.436102 -17.53411,3.782019 -12.92959,2.798078 -25.85917,5.596156 -38.78875,8.386548 -11.8534,2.55978 -23.59918,4.727523 -35.36802,7.049006 -7.97144,1.560466 -20.23995,7.325738 -26.02828,-1.598903 -2.93645,-4.535347 -3.24393,-12.452986 3.77433,-16.588608 0,0 102.09912,-22.707484 116.2125,-25.321073 l 2.6136,8.870831 c 0.008,0.0077 -4.88127,15.412493 -4.88127,15.42018 z M 110.97125,94.210302 245.89398,99.975569 c 0,0 6.61853,2.206181 7.04901,-7.840765 0.42279,-10.039261 -4.99657,-17.203571 -4.99657,-17.203571 L 104.93693,68.820045 c 0.008,0 -9.285926,13.275498 6.03432,25.390257 z m 24.96747,79.645308 c 0,0 -15.31256,3.82814 -18.17982,-8.60948 -2.87495,-12.4376 8.60948,-12.4376 8.60948,-12.4376 l 150.21222,-6.70309 11.96102,11.9687 -11.96102,11.96102 -140.64188,3.82045 z m 63.14894,66.97708 c 0,0 -11.48441,4.78133 -11.48441,-11.48441 0,-16.25808 6.2188,-10.04696 6.2188,-10.04696 l 90.87606,-10.5466 6.71846,6.71846 -9.57035,9.56267 -82.75856,15.79684 z M 187.96454,2.2580612 c -3.9742,-7.4026092 1.52971,-15.8045322 13.26781,-15.2126302 24.16033,1.206863 42.46315,23.337819 65.63953,28.818671 6.00358,1.422101 -10.63884,12.491422 -12.29155,12.906522 -9.32436,2.321483 -14.6361,-0.707206 -23.03803,-4.650652 C 219.10469,18.262455 205.35259,15.45669 193.62988,8.0463941 190.9471,6.3398733 189.07915,4.3335591 187.96454,2.2580612 Z m -52.55622,340.7121888 119.95609,5.76526 c 0,0 5.89595,2.1985 6.27261,-7.84076 0.37666,-10.04695 -4.4431,-17.20357 -4.4431,-17.20357 l -127.15114,-6.11119 c 0.008,0 -8.25588,13.27549 5.36554,25.39026 z m -17.21126,64.33274 158.99083,0 c 0,0 7.90225,1.91407 7.90225,-8.14056 0,-10.04695 -6.74151,-16.98065 -6.74151,-16.98065 l -168.52274,0 c 0,0.008 -10.269874,13.66754 8.37117,25.12121 z"
       style="fill:#ff0000;stroke:#000000;stroke-width:3.32485747;fill-opacity:1"
       id="path135" /><path
       d="m 120.64299,-165.40542 c -9.48095,18.60138 -15.66439,40.36382 -10.21752,61.15201 9.33206,35.62169 51.0265,93.136041 51.0265,93.136041 0,0 -57.40673,-48.482092 -65.063013,-110.993011 l 0,-43.30211 m 332.197733,-0.0145 c 2.22131,5.10595 1.67745,10.51932 -3.69255,15.88932 -10.84639,10.83871 -35.09898,22.23857 -66.97708,37.63569 C 326.03895,-96.4972 176.1342,-25.791908 145.51676,4.8255282 114.89932,35.442965 102.14655,49.487167 90.662122,92.849697 c 0,0 1.7219,25.959093 0,49.758133 0,0 8.824715,61.54236 61.134938,89.60001 -0.008,-0.008 -52.2103,-46.24516 -44.5617,-88.33164 0,0 -3.19012,-23.59918 45.29197,-72.081275 53.5709,-53.570905 207.90339,-122.538929 228.98891,-129.49569 106.51916,-35.068226 50.38848,-49.104745 65.06301,-91.836935 0,0 2.96174,-6.15308 -6.12033,-15.85903 m 1.84919,592.48406 c -0.13437,-10.43368 -0.2054,-20.20059 -0.20271,-31.44556 0.008,-19.10996 3.06713,-34.27646 -4.89664,-49.59671 -1.68346,-3.22856 -3.84351,-6.47248 -6.63391,-9.74716 -11.00013,-12.96033 -66.28524,-48.02086 -80.22183,-47.45971 52.21031,32.99272 74.34126,59.19781 76.13233,73.16514 1.74497,13.5138 -10.20837,25.70542 -14.67453,37.98929 -2.88264,7.92533 -1.46569,18.82777 -1.75011,27.07595 m -305.69453,-0.008 c 0.14843,-4.43619 -3.21126,-5.52159 4.76787,-26.86847 2.62897,-7.03363 5.86521,-13.75979 9.83171,-20.07083 6.09581,-9.68565 14.26713,-18.495 22.33851,-26.54331 27.48113,-27.41964 61.93439,-47.19836 97.97119,-61.08114 105.88113,-40.82581 159.45973,-77.82348 159.45973,-77.82348 0,0 38.27371,-24.2372 48.48208,-48.48209 0,0 -7.65627,-38.26603 0,-59.95114 0,0 -12.16088,-19.432807 -57.01469,-44.077422 0,0 35.32958,22.392315 35.32958,44.077422 0,21.68511 -36.35964,56.77639 -47.83637,56.77639 0,0 -198.37148,97.57147 -198.37148,97.57915 -12.96033,6.38023 -21.46218,17.93385 -32.20865,27.53494 -10.12381,9.04763 -20.51667,17.94153 -27.46575,29.80261 -8.75553,14.94359 -17.79548,30.0486 -23.437747,46.52191 -5.096508,14.89745 -8.397083,47.41989 -5.770966,62.58102"
       style="fill:#0063aa;stroke:#000000;stroke-width:3.32485747;fill-opacity:1"
       id="path149" /></g></svg>