<svg xmlns="http://www.w3.org/2000/svg" viewBox="0 0 179.9 245.87"><defs><style>.cls-1{fill:#4c9c2e;}.cls-2{fill:#1d1d1b;}</style></defs><g id="Layer_1" data-name="Layer 1"><path class="cls-1" d="M126.87,101.18c0-34.08,16.64-63.57,66.12-63.57,0,34.15-22.46,63.57-66.12,63.57" transform="translate(-49.97 -16.02)"/><path class="cls-1" d="M206.16,190.66a64.91,64.91,0,0,0,23.71-4c0-27-16.09-46.24-44.51-60.12C163.62,115.61,136.85,110,112.44,110c10.71-32.15,2.9-72-7.48-93.94C93.46,39,86.28,78.29,97.32,110.29c-21.68,1.58-38.88,11-46.16,23.49-.54.95-1.65,3-1,3.32s1.36-.57,1.88-1a41.66,41.66,0,0,1,28.17-10.78c23,0,39.28,19.1,50.76,30.58,24.68,24.67,48.8,34.86,75.18,34.81" transform="translate(-49.97 -16.02)"/></g><g id="type_copy" data-name="type copy"><path class="cls-2" d="M81.68,214.75l-5.79,3a2.18,2.18,0,0,1-.87.37c-.21,0-.43-.15-.58-.51-1.3-3.11-3.18-4.27-5.14-4.27H64.52a5.29,5.29,0,0,0-5.21,5.21v21.43a5.28,5.28,0,0,0,5.21,5.21h3.55a5.12,5.12,0,0,0,5.14-5.21v-3.4c0-.51-.21-.73-.72-.73H65.68c-.5,0-.72-.21-.72-.72v-6.15c0-.51.22-.73.72-.73H80.82c.5,0,.72.22.72.73v11c0,7.53-5.29,12.82-13.47,12.82H64.52c-8.25,0-13.46-5.29-13.46-12.82V218.51c0-7.53,5.21-12.81,13.46-12.81H69.3c6,0,9.27,2.46,11.44,5.86a10.35,10.35,0,0,1,1.38,2.68C82.12,214.46,82,214.6,81.68,214.75Z" transform="translate(-49.97 -16.02)"/><path class="cls-2" d="M104.71,252H88.42c-.51,0-.73-.21-.73-.72V207.14c0-.5.22-.72.73-.72h16.29c8.25,0,13.46,5.29,13.46,13.47v.72c0,2.68-1.73,5.79-3.83,7.82a.58.58,0,0,0,0,1c2.1,2,3.83,5.51,3.83,8.18v1.09C118.17,246.89,113,252,104.71,252Zm5.21-32.8a5.29,5.29,0,0,0-5.21-5.21h-8c-.5,0-.72.22-.72.73v9.63c0,.5.22.72.72.72h8a5.29,5.29,0,0,0,5.21-5.21Zm0,18.61a5.13,5.13,0,0,0-5.21-5.14h-8c-.5,0-.72.22-.72.73v10.28c0,.5.22.72.72.72h8a5.19,5.19,0,0,0,5.21-5.21Z" transform="translate(-49.97 -16.02)"/><path class="cls-2" d="M132.66,252h-6.88c-.51,0-.73-.21-.73-.72V207.14c0-.5.22-.72.73-.72h6.88c.5,0,.72.22.72.72v44.17C133.38,251.82,133.16,252,132.66,252Z" transform="translate(-49.97 -16.02)"/><path class="cls-2" d="M168.78,214H151.55c-.5,0-.72.22-.72.73v9.63c0,.5.22.72.72.72h14.12c.51,0,.73.22.73.72V232c0,.5-.22.72-.73.72H151.55c-.5,0-.72.22-.72.73v17.88c0,.51-.22.72-.72.72h-6.88c-.51,0-.73-.21-.73-.72V207.14c0-.5.22-.72.73-.72h25.55c.51,0,.73.22.73.72v6.16C169.51,213.8,169.29,214,168.78,214Z" transform="translate(-49.97 -16.02)"/><path class="cls-2" d="M169.44,252.24a3,3,0,1,1,3-3A3.06,3.06,0,0,1,169.44,252.24Z" transform="translate(-49.97 -16.02)"/><path class="cls-2" d="M184.16,252.24c-5.11,0-8.39-3.27-8.39-7.94v-5.56c0-4.67,3.28-7.94,8.39-7.94s8.35,3.27,8.35,7.94v5.56C192.51,249,189.23,252.24,184.16,252.24Zm3.19-13.5a3.18,3.18,0,0,0-3.19-3.23,3.22,3.22,0,0,0-3.23,3.23v5.56a3.22,3.22,0,0,0,3.23,3.23,3.18,3.18,0,0,0,3.19-3.23Z" transform="translate(-49.97 -16.02)"/><path class="cls-2" d="M206.41,236.85a5.22,5.22,0,0,0-1.61-.4,3.11,3.11,0,0,0-3.23,3.14v11.75c0,.32-.14.45-.45.45H196.9c-.31,0-.45-.13-.45-.45V231.69c0-.31.14-.45.45-.45h3.82c.31,0,.44,0,.44.41v.63a.41.41,0,0,0,.36.45.36.36,0,0,0,.32-.14,5.5,5.5,0,0,1,3.41-1.35,5.31,5.31,0,0,1,1.25.14.43.43,0,0,1,.36.45v4.53A.46.46,0,0,1,206.41,236.85Z" transform="translate(-49.97 -16.02)"/><path class="cls-2" d="M221.8,261.89h-5.74c-3.64,0-6.47-2-6.47-5.57V255a5.45,5.45,0,0,1,2.29-4.35.54.54,0,0,0,.18-.36c0-.4-.85-.85-.85-2.51a4.67,4.67,0,0,1,1-2.74.41.41,0,0,0-.14-.31,7.3,7.3,0,0,1-2.47-5.43v-.63c0-4.66,3.68-7.45,8.39-7.45a6.75,6.75,0,0,1,2.47.59,2.9,2.9,0,0,0,.81.31c.22,0,.36-.18.36-.49s.13-.41.45-.41h3.81c.32,0,.45.14.45.45v7.41c0,4.66-3.68,7.76-8.35,7.76h-1.07c-.45,0-.9.49-.9,1.25s.4,1.35,1,1.35h4.8c3.63,0,6.46,1.93,6.46,5.56v1.3C228.26,259.91,225.43,261.89,221.8,261.89Zm-.63-23.2a3.21,3.21,0,0,0-6.42,0v.63a3,3,0,0,0,3.23,2.92,2.93,2.93,0,0,0,3.19-2.92ZM223.1,255a1.25,1.25,0,0,0-1.3-1.3h-5.74a1.25,1.25,0,0,0-1.31,1.3v1.3a1.31,1.31,0,0,0,1.31,1.31h5.74a1.31,1.31,0,0,0,1.3-1.31Z" transform="translate(-49.97 -16.02)"/></g></svg>