<?xml version="1.0" encoding="UTF-8" standalone="no"?>
<svg
   xmlns:dc="http://purl.org/dc/elements/1.1/"
   xmlns:cc="http://creativecommons.org/ns#"
   xmlns:rdf="http://www.w3.org/1999/02/22-rdf-syntax-ns#"
   xmlns:svg="http://www.w3.org/2000/svg"
   xmlns="http://www.w3.org/2000/svg"
   xml:space="preserve"
   enable-background="new 306.14 277.986 257 239"
   viewBox="306.14 277.986 230.24428 97.874001"
   height="97.874001"
   width="230.24428"
   y="0px"
   x="0px"
   id="Layer_1"
   version="1.1"><metadata
     id="metadata5949"><rdf:RDF><cc:Work
         rdf:about=""><dc:format>image/svg+xml</dc:format><dc:type
           rdf:resource="http://purl.org/dc/dcmitype/StillImage" /><dc:title></dc:title></cc:Work></rdf:RDF></metadata><defs
     id="defs5947" /><path
     style="fill:#d2110c"
     id="path5918"
     d="m 404.014,326.923 c 0,27.027 -21.909,48.937 -48.937,48.937 -27.026,0 -48.937,-21.909 -48.937,-48.937 0,-27.026 21.91,-48.937 48.937,-48.937 l 48.937,0 0,48.937 0,0 z" /><path
     style="fill:#ffffff"
     id="path5930"
     d="m 362.35866,336.76048 c -3.619,6.526 -10.578,10.945 -18.569,10.945 -11.719,0 -21.218,-9.499 -21.218,-21.218 0,-11.718 9.499,-21.217 21.218,-21.217 7.996,0 14.958,4.423 18.575,10.956 l -6.82,-10e-4 c -2.86,-3.274 -7.066,-5.342 -11.755,-5.342 -8.619,0 -15.604,6.986 -15.604,15.604 0,8.618 6.984,15.604 15.604,15.604 4.684,0 8.887,-2.063 11.746,-5.331 l 6.823,0 z" /><path
     d="m 417.21666,284.50748 19.842,0 c 6.869,0 13.629,3.107 13.629,10.957 0,4.198 -2.017,8.178 -6.105,9.758 l 0,0.109 c 4.144,0.981 5.342,5.614 5.669,9.321 0.109,1.636 0.272,7.359 1.636,8.776 l -10.03,0 c -0.872,-1.308 -1.036,-5.124 -1.146,-6.215 -0.271,-3.924 -0.927,-7.958 -5.669,-7.958 l -7.686,0 0,14.173 -10.14,0 0,-38.921 0,0 z m 10.14,16.9 8.503,0 c 3.053,0 4.688,-1.636 4.688,-4.579 0,-2.889 -2.288,-4.197 -5.124,-4.197 l -8.066,0 0,8.776 z"
     id="R" /><path
     d="m 455.60866,284.50748 31.018,0 0,8.123 -20.878,0 0,6.814 19.079,0 0,7.85 -19.079,0 0,7.413 21.423,0 0,8.723 -31.563,0 0,-38.923 z"
     id="E" /><path
     d="m 491.53266,284.50748 16.734,0 c 11.938,0 19.08,7.251 19.08,19.299 0,12.756 -7.25,19.624 -19.08,19.624 l -16.734,0 0,-38.923 z m 10.139,30.201 4.798,0 c 7.687,-0.163 10.738,-3.161 10.738,-10.957 0,-7.085 -3.815,-10.521 -10.738,-10.521 l -4.798,0 0,21.478 z"
     id="D" /><path
     d="m 417.21666,327.41948 10.14,0 0,30.199 18.152,0 0,8.723 -28.292,0 0,-38.922 z"
     id="L" /><path
     d="m 448.42466,327.41948 10.14,0 0,38.922 -10.14,0 0,-38.922 z"
     id="I" /><path
     d="m 471.37166,353.25648 c 0.218,4.579 3.053,6.052 7.359,6.052 3.053,0 6.215,-1.091 6.215,-3.979 0,-3.435 -5.562,-4.09 -11.176,-5.67 -5.562,-1.581 -11.394,-4.089 -11.394,-11.23 0,-8.503 8.559,-11.829 15.863,-11.829 7.741,0 15.536,3.762 15.591,12.538 l -10.139,0 c 0.163,-3.543 -3.162,-4.688 -6.27,-4.688 -2.18,0 -4.905,0.764 -4.905,3.325 0,2.998 5.614,3.543 11.283,5.124 5.615,1.581 11.284,4.198 11.284,11.229 0,9.867 -8.395,13.029 -16.953,13.029 -8.94,0 -16.845,-3.925 -16.9,-13.901 l 10.142,0 0,0 z"
     id="S" /><path
     d="m 526.87666,336.14048 -11.612,0 0,30.2 -10.138,0 0,-30.2 -11.611,0 0,-8.722 33.361,0 0,8.722 0,0 z"
     id="T" /><text
     y="292.97858"
     x="526.28589"
     style="font-size:13.89890003px;font-family:ArialMT"
     id="text5939"
     font-size="13.8989">©</text>
<path
     style="fill:#ffffff"
     d="m 334.87666,331.90748 0,-9.954 1.981,0 0,9.954 -1.981,0"
     id="I_1_" /><path
     style="fill:#ffffff"
     d="m 338.72466,321.95348 2.091,0 0,5.392 c 0,0.854 0.026,1.41 0.078,1.663 0.09,0.408 0.301,0.735 0.637,0.984 0.339,0.245 0.8,0.366 1.384,0.366 0.594,0 1.041,-0.116 1.343,-0.346 0.301,-0.236 0.482,-0.523 0.544,-0.862 0.062,-0.34 0.092,-0.903 0.092,-1.69 l 0,-5.507 2.091,0 0,5.229 c 0,1.194 -0.057,2.038 -0.169,2.531 -0.113,0.493 -0.323,0.91 -0.629,1.249 -0.301,0.341 -0.706,0.612 -1.216,0.815 -0.508,0.199 -1.172,0.299 -1.992,0.299 -0.988,0 -1.739,-0.108 -2.253,-0.326 -0.509,-0.222 -0.912,-0.507 -1.209,-0.855 -0.296,-0.353 -0.492,-0.723 -0.586,-1.106 -0.137,-0.57 -0.205,-1.413 -0.205,-2.525 l 0,-5.311"
     id="U" /><path
     style="fill:#ffffff"
     d="m 348.23966,326.99148 c 0,-1.014 0.149,-1.865 0.449,-2.553 0.224,-0.507 0.526,-0.962 0.909,-1.364 0.389,-0.402 0.813,-0.702 1.271,-0.896 0.611,-0.263 1.316,-0.393 2.114,-0.394 1.445,0.001 2.602,0.455 3.466,1.364 0.564,0.589 0.945,1.327 1.144,2.213 l -2.076,0.022 c -0.124,-0.417 -0.309,-0.764 -0.553,-1.039 -0.49,-0.562 -1.144,-0.843 -1.96,-0.843 -0.816,0 -1.476,0.285 -1.974,0.855 -0.5,0.565 -0.749,1.421 -0.749,2.567 m 10e-4,0.001 c 0,1.126 0.255,1.982 0.769,2.565 0.513,0.579 1.164,0.869 1.954,0.869 0.789,0 1.436,-0.287 1.94,-0.863 0.28,-0.319 0.484,-0.727 0.609,-1.221 l 2.08,0.045 c -0.184,0.969 -0.573,1.768 -1.171,2.399 -0.86,0.906 -2.012,1.357 -3.452,1.357 -1.459,0 -2.619,-0.45 -3.48,-1.352 -0.86,-0.905 -1.291,-2.149 -1.291,-3.733"
     id="C" /><path
     style="fill:#ffffff"
     d="m 358.85066,331.90748 0,-9.954 1.776,0 4.541,6.894 0,-6.894 1.847,0 0,9.954 -1.73,0 -4.671,-6.981 0.194,6.981 -1.957,0"
     id="N" /></svg>