<svg xmlns="http://www.w3.org/2000/svg" width="610.083" height="137.719" viewBox="0 0 161.418 36.438"><path d="M4.42 18.219c0 .646.123 1.244.367 1.79a4.48 4.48 0 002.447 2.362c.555.223 1.14.334 1.76.334a4.657 4.657 0 003.224-1.272 4.34 4.34 0 001.368-3.214 4.34 4.34 0 00-1.368-3.214 4.633 4.633 0 00-3.225-1.271c-.619 0-1.204.11-1.758.333a4.48 4.48 0 00-2.448 2.362 4.341 4.341 0 00-.366 1.79m-4.421 0c0-1.207.222-2.333.668-3.376a8.384 8.384 0 011.855-2.727c.79-.778 1.735-1.384 2.836-1.823 1.1-.439 2.311-.658 3.634-.658 1.308 0 2.516.22 3.623.658 1.108.44 2.06 1.045 2.858 1.823a8.35 8.35 0 011.866 2.727 8.514 8.514 0 01.668 3.376 8.502 8.502 0 01-.668 3.375 8.342 8.342 0 01-1.866 2.728c-.798.778-1.75 1.384-2.858 1.824-1.107.438-2.315.657-3.623.657-1.323 0-2.534-.22-3.634-.657-1.1-.44-2.046-1.046-2.836-1.824a8.376 8.376 0 01-1.855-2.728C.222 20.552 0 19.426 0 18.219M20.683 26.35V10.088h4.226l7.808 9.942V10.09h4.206v16.26h-4.206l-7.808-9.942v9.942zm0 0M49.583 13.669h-5.026v2.717h4.745v3.58h-4.745v2.803h5.026v3.58H40.33V10.087h9.253zm0 0M93.266 22.77h6.815v3.58h-13.91l7.698-12.681h-6.405v-3.58h13.458zm0 0M106.638 18.219c0 .646.121 1.244.367 1.79a4.48 4.48 0 002.447 2.362c.553.223 1.14.334 1.758.334a4.655 4.655 0 003.224-1.272c.424-.403.759-.877 1.003-1.424a4.342 4.342 0 00.366-1.79c0-.646-.122-1.244-.366-1.79a4.421 4.421 0 00-1.003-1.424 4.655 4.655 0 00-3.223-1.272c-.62 0-1.206.11-1.759.334a4.48 4.48 0 00-2.447 2.362 4.32 4.32 0 00-.367 1.79m-4.422 0a8.427 8.427 0 012.523-6.103c.791-.778 1.737-1.384 2.836-1.823 1.1-.439 2.311-.658 3.635-.658 1.308 0 2.515.22 3.623.658 1.107.44 2.06 1.045 2.858 1.823a8.326 8.326 0 011.865 2.727 8.49 8.49 0 01.67 3.376c0 1.207-.224 2.333-.67 3.375a8.317 8.317 0 01-1.865 2.728c-.799.778-1.751 1.384-2.858 1.824-1.108.438-2.315.657-3.623.657-1.324 0-2.535-.22-3.635-.657-1.1-.44-2.045-1.046-2.836-1.824a8.418 8.418 0 01-1.855-2.728 8.502 8.502 0 01-.668-3.375M126.587 18.219c0 .646.122 1.244.366 1.79.245.547.576 1.021.992 1.424a4.5 4.5 0 001.457.938 4.65 4.65 0 001.757.334 4.657 4.657 0 003.225-1.272 4.442 4.442 0 001.003-1.424 4.341 4.341 0 00.366-1.79c0-.646-.122-1.244-.366-1.79a4.442 4.442 0 00-1.003-1.424 4.657 4.657 0 00-3.225-1.272 4.65 4.65 0 00-1.757.334 4.5 4.5 0 00-1.457.938 4.544 4.544 0 00-.992 1.424 4.342 4.342 0 00-.366 1.79m-4.421 0c0-1.207.223-2.333.668-3.376a8.406 8.406 0 011.855-2.727c.791-.778 1.736-1.384 2.836-1.823 1.1-.439 2.311-.658 3.634-.658 1.31 0 2.516.22 3.623.658 1.108.44 2.06 1.045 2.858 1.823.8.776 1.42 1.685 1.866 2.727a8.49 8.49 0 01.67 3.376c0 1.207-.224 2.333-.67 3.375a8.3 8.3 0 01-1.866 2.728c-.798.778-1.75 1.384-2.858 1.824-1.107.438-2.314.657-3.623.657-1.323 0-2.534-.22-3.634-.657-1.1-.44-2.045-1.046-2.836-1.824a8.397 8.397 0 01-1.855-2.728 8.502 8.502 0 01-.668-3.375M141.037 26.35l2.761-16.261h4.184l3.256 8.669 3.236-8.67h4.184l2.76 16.261h-4.204l-1.403-9.36-3.838 9.36h-1.683l-3.645-9.36-1.403 9.36zm0 0" fill="#fff"/><path d="M88.981 6.864c-2.603-.798-4.984-1.306-7.109-1.508a14.671 14.671 0 012.435 6.457l.105-.162c1.073-1.728 2.025-3.734 4.57-4.787M69.656 23.491c-5.43 0-9.846-4.416-9.846-9.846S64.226 3.8 69.656 3.8c1.134 0 2.224.196 3.238.55-3.912 1.475-6.259 4.658-6.635 9.77 1.968-2.262 6.273-4.724 10.195-5.492 0 0-2.894 1.277-5.594 3.177-2.093 1.516-3.526 2.893-4.022 3.334-.516.442-2.69 2.267-3.644 3.404.33.412.692.797 1.082 1.153 1.308-1.622 2.524-2.77 2.727-2.82 3.539 2.358 7.663 2.806 11.37 1.339-1.648 3.135-4.936 5.277-8.717 5.277m0-23.491c-7.524 0-13.647 6.121-13.647 13.645 0 3.024.99 5.818 2.661 8.083L47.465 32.934a2.053 2.053 0 102.904 2.902L61.574 24.63a13.57 13.57 0 008.082 2.66c7.524 0 13.646-6.12 13.646-13.646C83.302 6.121 77.18 0 69.656 0" fill="#7fd14f"/></svg>