<svg xmlns="http://www.w3.org/2000/svg" width="49.763" height="43.052" viewBox="0 0 13.167 11.391"><g fill="#1c261c"><path d="M13.166 2.146c-.814-.25-1.558-.408-2.22-.472.4.59.667 1.278.76 2.02.01-.019.022-.034.033-.052.335-.54.632-1.167 1.428-1.496M7.125 7.344a3.081 3.081 0 01-3.078-3.078A3.082 3.082 0 018.138 1.36c-1.224.46-1.935 1.222-2.052 2.82.615-.707 1.993-1.39 3.164-1.483 0 0-.904.4-1.749.993-.654.474-1.102.904-1.256 1.042-.162.14-.841.708-1.14 1.064.103.13.325.317.446.429.41-.508.79-.866.853-.882 1.107.737 2.288.81 3.447.351a3.08 3.08 0 01-2.726 1.65m0-7.344A4.27 4.27 0 002.86 4.266c0 .946.309 1.82.831 2.526L.188 10.295a.642.642 0 10.908.908L4.6 7.7c.707.523 1.58.831 2.526.831a4.27 4.27 0 004.267-4.265A4.271 4.271 0 007.125 0"/></g></svg>