<svg xmlns="http://www.w3.org/2000/svg" width="176.14" height="152.38" viewBox="0 0 46.6 40.32"><g fill="#3f473f"><path d="M46.6 7.6a40.07 40.07 0 00-7.86-1.67 16.24 16.24 0 012.7 7.14l.1-.18c1.2-1.91 2.25-4.13 5.06-5.3M25.22 26a10.9 10.9 0 010-21.8c1.25 0 2.46.22 3.58.61-4.33 1.63-6.92 5.15-7.34 10.81 2.18-2.5 6.94-5.22 11.28-6.07 0 0-3.2 1.4-6.19 3.51-2.31 1.68-3.9 3.2-4.45 3.69-.57.49-2.98 2.5-4.03 3.77.37.45.77.88 1.2 1.27 1.44-1.8 2.79-3.06 3.01-3.12a13.45 13.45 0 0012.59 1.48A10.9 10.9 0 0125.22 26m0-25.99a15.12 15.12 0 00-12.16 24.04L.66 36.44a2.27 2.27 0 103.22 3.21l12.4-12.4c2.5 1.85 5.6 2.95 8.94 2.95 8.32 0 15.1-6.78 15.1-15.1 0-8.33-6.78-15.1-15.1-15.1"/></g></svg>