<svg xmlns="http://www.w3.org/2000/svg" width="40.72" height="32.5" viewBox="0 0 10.77 8.6"><path d="M8.47 8.5H.07V.1H3.6a.4.4 0 010 .8H.87v6.8h6.8V4.97a.4.4 0 01.8 0zm0 0" fill="#fff" stroke="#000" stroke-width=".13"/><path d="M3.27 3.19a6.43 6.43 0 011.9-1.14l.1-.03.24-.07-.21-.6 1.84.2L5.87 2.9l-.23-.65c-.3.16-.7.38-1.06.65-.6.44-1.02.84-1.17.96-.16.15-.94.8-.95.89l.3.35c.23-.33.64-.72.7-.73 1.75 1.16 4 .72 5.29-1.35.43-.7.8-1.5 1.83-1.92C6.47-.16 3.7.37 3.27 3.2" fill="#fff" stroke="#000" stroke-width=".13"/></svg>