<svg xmlns="http://www.w3.org/2000/svg" viewBox="0 0 117.007 46.114" height="174.29" width="442.23"><path d="M44.946 8.584c0 .647.122 1.244.367 1.79a4.48 4.48 0 002.448 2.362c.553.223 1.139.334 1.757.334a4.661 4.661 0 003.225-1.272 4.436 4.436 0 001.003-1.424 4.331 4.331
0 00.366-1.79c0-.647-.122-1.243-.366-1.79a4.443 4.443 0 00-1.003-1.423 4.668 4.668 0 00-3.224-1.272c-.619 0-1.205.11-1.758.333a4.49 4.49 0 00-1.456.939 4.513 4.513 0 00-.992 1.423 4.327 4.327 0 00-.367 1.79m-4.421 0c0-1.208.223-2.332.668-3.375a8.424 8.424 0 011.855-2.729c.791-.776 1.736-1.383 2.836-1.822C46.984.22 48.195 0 49.518 0c1.308 0 2.516.22 3.624.658A8.582 8.582 0 0156 2.48a8.354 8.354 0 011.865 2.729 8.504 8.504 0 01.669 3.375 8.504 8.504 0 01-.669 3.376A8.35 8.35 0 0156 14.688a8.57 8.57 0 01-2.858 1.822c-1.108.439-2.316.658-3.624.658-1.323 0-2.534-.22-3.634-.658a8.47 8.47 0 01-2.836-1.822 8.42 8.42 0 01-1.855-2.728c-.445-1.043-.668-2.168-.668-3.376M61.208 16.715V.453h4.227l7.808 9.943V.453h4.205v16.262h-4.205l-7.808-9.943v9.943zM90.108 4.033h-5.025v2.718h4.745v3.58h-4.745v2.804h5.025v3.58h-9.252V.453h9.252zM48.854 32.446h6.815v3.58H41.76l7.7-12.681h-6.407v-3.58H56.51zM62.226 27.895c0 .647.122 1.244.366 1.79a4.474 4.474 0 002.448 2.362c.553.223 1.14.334 1.758.334a4.663 4.663 0 003.224-1.272 4.441 4.441 0 001.003-1.424 4.337 4.337 0 00.367-1.79c0-.647-.122-1.243-.367-1.79a4.449 4.449 0 00-1.003-1.423 4.67 4.67 0 00-3.224-1.272c-.618 0-1.205.111-1.758.334a4.486 4.486 0 00-2.448 2.361 4.332 4.332 0
00-.366 1.79m-4.422 0c0-1.207.223-2.332.669-3.375a8.417 8.417 0 011.855-2.728 8.475 8.475 0 012.836-1.822c1.1-.439 2.31-.659 3.634-.659
1.308 0 2.516.22 3.623.659a8.58 8.58 0 012.858 1.822 8.353 8.353 0 011.866 2.728 8.498 8.498 0 01.668 3.375 8.498 8.498 0 01-.668 3.376
8.35 8.35 0 01-1.866 2.728 8.574 8.574 0 01-2.858 1.822c-1.107.439-2.315.659-3.623.659-1.323 0-2.534-.22-3.634-.659A8.47 8.47 0 0160.328 34a8.413 8.413 0 01-1.855-2.728 8.498 8.498 0 01-.669-3.376M82.175 27.895c0 .647.123 1.244.367 1.79a4.48 4.48 0 002.448 2.362c.553.223
1.14.334 1.758.334a4.66 4.66 0 003.224-1.272 4.439 4.439 0 001.003-1.424 4.331 4.331 0 00.366-1.79c0-.647-.122-1.243-.366-1.79a4.447 4.447 0 00-1.003-1.423 4.666 4.666 0 00-3.224-1.272c-.618 0-1.205.111-1.758.334a4.49 4.49 0 00-1.456.938 4.52 4.52 0 00-.992 1.423 4.333 4.333 0 00-.367 1.79m-4.421 0c0-1.207.223-2.332.668-3.375a8.423 8.423 0 011.855-2.728c.79-.776 1.737-1.384 2.837-1.822 1.1-.439 2.31-.659
3.634-.659 1.308 0 2.516.22 3.623.659a8.577 8.577 0 012.858 1.822 8.348 8.348 0 011.865 2.728 8.498 8.498 0 01.67 3.375 8.498 8.498 0 01-.67 3.376 8.344 8.344 0 01-1.865 2.728 8.572 8.572 0 01-2.858 1.822c-1.107.439-2.315.659-3.623.659-1.323 0-2.534-.22-3.634-.659A8.471 8.471 0 0180.277 34a8.419 8.419 0 01-1.855-2.728 8.498 8.498 0 01-.668-3.376M96.625 36.026l2.76-16.262h4.186l3.256 8.67 3.235-8.67h4.184l2.76 16.262h-4.204l-1.403-9.36-3.839 9.36h-1.682l-3.645-9.36-1.402 9.36z" fill="#1e281e"/><path d="M42.117 16.54c-2.602-.798-4.984-1.306-7.108-1.507a14.68 14.68 0 012.434 6.455c.035-.053.071-.105.106-.16 1.072-1.728 2.026-3.735 4.568-4.787M22.792 33.168c-5.43 0-9.846-4.417-9.846-9.846s4.417-9.846 9.846-9.846c1.135 0 2.224.195 3.239.55-3.913 1.475-6.26 4.657-6.635 9.77 1.967-2.263 6.272-4.724 10.194-5.493
0 0-2.893 1.277-5.593 3.178-2.094 1.516-3.526 2.893-4.022 3.334-.517.442-2.691 2.265-3.644 3.404.331.41.691.797 1.081 1.152 1.308-1.621
2.525-2.77 2.728-2.82 3.538 2.358 7.663 2.807 11.37 1.34-1.649 3.134-4.937 5.277-8.718 5.277m0-23.491c-7.524 0-13.646 6.12-13.646 13.645 0 3.023.99 5.819 2.66 8.083L.601 42.61a2.053 2.053 0 102.904 2.903L14.71 34.308a13.57 13.57 0 008.082 2.66c7.525 0 13.646-6.122 13.646-13.646 0-7.524-6.121-13.645-13.646-13.645" fill="#82d250"/></svg>