<svg xmlns="http://www.w3.org/2000/svg" width="311.06" height="160.84" viewBox="0 0 82.3 42.56"><path d="M1.72 31.22c1.32-1.85 3.66-4.08 4.03-4.17 10 6.67 22.84 4.16 30.24-7.68 2.47-3.97 4.66-8.58 10.5-11C21.93.82 5.85 4.43 4.53 22.47c3.26-3.75 10.4-7.83 16.9-9.1 0 0-4.8 2.11-9.28 5.26-3.47 2.52-5.84 4.8-6.67 5.53C4.52 25 .1 28.7 0 29.25zm0 0" fill="#ff9e7f"/><path d="M46.07 42.56c.07-1.02.44-2.41.56-2.53 5.36.2 9.66-3.74 9.71-9.96.02-2.09-.22-4.36 1.44-6.64-11.1 2.86-16.39 7.98-12.69 15.15.37-2.19 2.14-5.4 4.31-7.4 0 0-1.33 1.92-2.3 4.16-.73 1.77-1.1 3.19-1.25 3.66-.17.54-.99 2.98-.9 3.2zm0 0" fill="#3a8a30"/><path d="M62.14 1.24c1.16.24 2.7.89 2.82 1.04-1.09 6.14 2.78 11.7 9.93 12.76 2.4.34 5.05.43 7.41 2.7C80.77 4.5 75.71-2.38 66.87.74c2.46.77 5.88 3.31 7.84 6.14 0 0-2-1.84-4.43-3.31-1.91-1.13-3.5-1.78-4.01-2.02C65.68 1.27 63-.06 62.72.01zm0 0" fill="#d11c1c"/></svg>