<svg xmlns="http://www.w3.org/2000/svg" width="335.7" height="556.2"><path d="M143.2 533.6c-5.4-1.8-14.2-5.3-15.7-6.2a19 19 0 01-6.6-7.2 17.8 17.8 0 010-16.2c1-2.2 3.7-5.3 5.5-6.5.7-.5.7-.6.2-2-1.3-4-1.2-8.5.2-11.7.3-.8.6-1.4.5-1.5l-3.2.3c-6.3.7-14.5-.5-22.6-3.3-6.1-2.1-7-2.4-8.4-2.1-1.6.3-2.6 1.2-3.6 3l-.8 1.7 1.8 1.6a13.8 13.8 0 01-6 23.3c-2.2.6-5.8 2.6-7.4 4.2-.9.8-1.5 1.3-1.5 1 0-.7-2.3-4.8-4.5-8.2-3-4.7-3.6-6.2-3.8-9.4-.4-7 3.6-12.5 10.3-14.3 1-.3 2.4-.5 3.3-.5h1.6l1-2c1.2-2.5 2.9-4.5 5-5.6l1.4-.9-2.2-1.6c-4.4-3-9.2-8.4-12.6-14.4-2.4-4-3.8-4.9-6.5-3.8l-1.2.5v3c0 3.7-.8 5.5-3.2 7.8-3.4 3.3-7.3 3.7-13 1.6a580.5 580.5 0 00-8.4-3.3c-.6-.5-.7-.5-.1-.8 1.6-1 3.2-3.7 3.7-6.5.5-2.6 1.4-4.5 3-6 2-2 4-3 7-3.1a10 10 0 017.2 2.2c1 .9 1 1 1.8.5 1.4-1 4.4-1.6 6.2-1.3l1.7.2-.3-1a36 36 0 01-.8-15.4c.6-3.8.4-4.6-1.6-5.6l-1.2-.6-.5.8a8.4 8.4 0 01-7.4 4.2c-3.1 0-5.6-1.5-7.3-4.6l-2.2-3.6-1.6-3.1c-.2-.8-.1-.9.5-.7 1 .2 3.2-.7 5.2-2.2 2-1.5 4.5-2.3 6.4-2 3.3.5 6 2.7 6.8 5.8.5 1.6.6 1.7 2.2 2.1 1.2.4 2.1 1 3 1.8l1.3 1.3.4-1.1c.5-1.4 3-5.3 4.7-7.2l1.3-1.4-.8-1.7a14 14 0 013.5-16.3c1.7-1.6 3.3-2.4 5.7-3.2 1.6-.4 2.8-.4 10.1-.2 5 .2 8.7.5 9.4.7 1 .4 1 .4.3.9-.3.2-1 1-1.3 1.8-.7 1.2-.7 1.7-.8 7.5 0 5.8 0 6.4-.7 8-3.1 7.6-11 11-18.7 8l-1.9-.7-.8.8c-1 1-3.4 4.6-4 6.1C80.6 429 80 438.4 81 442a53 53 0 009.8 15.3c3.2 3.2 5 4.4 9.5 6 10 3.6 14.2 4.6 20 4.6 4.2 0 6.3-.5 13-2.9 9-3.1 13.2-5.1 18.3-8.6a35 35 0 0012-12.7c.7-1.4 2.5-4.5 4-6.8a77.5 77.5 0 0011.2-29c.5-3.6.2-11.1-.5-13.9l-1.1-7c-3.4-26.3-11.8-44.7-25.3-55.3-1.3-1-4.2-3.5-6.4-5.6-24.9-23.3-47.8-34.8-69-34.8-3.2 0-5.1.2-9.8 1a165.7 165.7 0 01-34 3.5c-11.5 0-18.5-.7-28.4-3l-4.4-1v-61.1l1 .7c12.7 9.8 29 11.6 56.8 6.4a187 187 0 0111.1-1.7c5.1-.6 6.5-.9 9.4-2 7.7-2.9 11.5-9.3 11.9-20.3 0-2.4 0-7.3-.2-10.9-.2-5.7-.3-6.7-1-7.8-1.7-3.3-4.4-4.6-11.8-5.3-3-.3-3.7-.3-4.5.2-1 .5-2.3 2.1-2.3 3 0 .1.7 1 1.5 1.7 2 1.8 3 4 3.3 6.7.3 4.8-2.3 8.7-7 10.5-2.4.9-4.4 2.3-5 3.5l-.3 1-1-1.1c-1.7-2-6-8.6-6.4-10.1-.7-2.2-.4-5.6.6-7.6 1.6-3 4.6-5 8-5.5 1.5-.2 1.7-.3 2-1.4.7-1.8 2-3.6 3.4-4.5l1.2-.9-1-.8a37 37 0 01-8.3-7.1l-1.4-1.7-2.2.7c-2.8 1-7.1 1-10 .2-6.6-2-11.2-7.3-12.4-14-.5-2.8-.5-3.8.4-8.1a22 22 0 00-.2-9.2l-1-1.5-.7-.6 1.7-.4c1-.3 5.4-.5 10.4-.6 7.3-.1 9 0 10.7.4a17.6 17.6 0 0113 12.7c.5 2.2.5 6.4 0 8.7-.6 2-1.9 4.8-2.7 5.7-.4.5-.4.7.2 1.5 1.4 1.9 5.4 5.4 7.6 6.5 1.8 1 2.7 1.2 5.6 1.5a22.2 22.2 0 0117 8.4l.8 1.2.6-1.5a70.6 70.6 0 0121.6-28.5c3.4-2.8 4.8-4.9 4.8-7 0-1.4-1.3-4.1-2.4-5.1l-.7-.7-1.8.6c-7 2.5-14.2.7-19-4.6a18 18 0 01-4.1-16.4c.5-2.3.6-7.4 0-9.1-.1-.7-.7-1.6-1-2-.7-.7-.8-.8-.3-1 2.3-.9 19.6-1.1 22.6-.3a17.6 17.6 0 0111.2 25l-1 2.3 1 1.5c2.5 3.2 3.8 6.5 3.8 10v1.9l2-1A57 57 0 01160 147c5.8-.3 7.1-.8 8-3 .5-.8.7-1.9.6-2.7 0-1.2-.2-1.3-1.5-1.7a13.5 13.5 0 01-8.9-11.7c-.4-4.6 1.2-8 5.6-12 3.1-2.9 4.9-5.4 4.9-7 0-.4.1-.8.3-.8 1.1 0 12.3 9 13.7 11a13 13 0 012.4 7.7c0 4.1-1.5 7.5-4.6 10.2a14 14 0 01-5 2.8c-.2 0-.4 1-.5 2.5a12 12 0 01-2.9 7.3l-1 1 1 .2a52 52 0 0115 6.2l2 1.3 1.8-1.4c4.2-3.1 8.8-4.6 14.1-4.6a23.3 23.3 0 0123.3 21.8c1 7.5 3.2 12.7 6 14l1.3.6-1.4.8a73 73 0 01-13 5.2 49.7 49.7 0 01-15 4.2 23 23 0 01-18-7.2 23 23 0 01-6.5-13.6c-.3-3-.2-3.9 1-9.8 0-.8-.2-1-2.5-2.4a27.6 27.6 0 00-17-4.4c-6.2 0-9.8.4-13.7 1.4-5 1.2-9.2 3.4-12.3 6.3l-4.7 4.1c-4 3.5-8.6 8.3-11.1 11.8a42.2 42.2 0 00-6.2 12.7c-.6 2.6-.6 3.4-.4 9.3.6 19-4 32.5-14.7 42-1.1 1-1.7 1.8-1.4 1.9l4.7 1.2c23.4 6.1 46.5 19.9 70.2 41.8 3 2.7 4.5 3.8 6.4 4.8 8.5 4.1 14.6 1.6 23.3-9.6 4-5.2 4.8-6.4 5-8 .2-2-1.3-4.7-4.4-7.7-2.6-2.6-3.5-3-5.2-2.2-.7.3-.7.5-.7 3.2 0 2.6-.1 3-1 4.2-1.6 2.3-3.3 3.3-5.9 3.4-1.4.1-2.7 0-3.7-.4-.8-.2-2.4-.5-3.6-.5-1.2 0-2 0-1.8-.3l.5-4c.4-5 .7-6 2.5-7.8a8 8 0 019.9-1c.7.5.8.5 2.5-.2a6 6 0 013.2-.7c1.6.1 1.5.4.6-3.2-.3-1.2-.7-3.4-.8-5l-.2-2.8-1.7-.6c-2-.8-5-3.5-6.3-5.5-1.3-2.3-1.9-4.8-1.7-7.8.1-2.2.3-3 1.3-5s1.7-2.9 4.3-5.3c3.4-3 5-5.6 4.8-7v-.7c1 0 11.7 8.3 13.4 10.3a14 14 0 011.2 15.5c-1.2 2-4.3 4.7-6.3 5.5l-2.1.7c-.8 0 0 5.9 1 8.4.4 1 1.7 2.7 3.2 4.3 3.8 4.1 5.6 8.3 5.3 12.4v1.7l3.3-1.5c7-3.3 14-5 22.7-5.5 7.4-.5 8.8-1.3 9.2-5.2l.2-1.7-2-.7a13.6 13.6 0 01-8-16.7c1-2.9 1.8-4 5.1-7.1 3.2-3 5-5.5 4.7-6.9 0-.4 0-.7.2-.7 1.2 0 12.4 9 13.9 11a13.6 13.6 0 01-7.2 20.6c-.2 0-.4 1-.5 2.4-.2 2.8-1.2 5.4-2.7 7.2-1.2 1.5-1.3 1.4 1.5 2a48.7 48.7 0 0114.9 6.8c.2 0 1.2-.5 2.2-1.2 4-3 7.7-4.3 13-4.6a21.7 21.7 0 0117.4 6.8c4.3 4.3 6.3 8.5 7 14.6.8 7.8 4 14.7 6.7 14.7.7 0 .7 0 0 .5a69 69 0 01-13.7 5.7c-11.8 4.1-13 4.4-17.3 4.2a23.1 23.1 0 01-21.8-29l.6-2-.9-.8a43.8 43.8 0 00-10.5-4.9c-2-.5-3.6-.6-7.7-.6-10.2 0-18 2-24.3 6.2-2 1.3-3 2.3-4.7 4.5a45.6 45.6 0 01-20.3 16.5 34.7 34.7 0 01-11.3 2c0 .2.8 1.4 1.9 2.8 10.8 14.5 18 34.5 21.4 59.3 1.2 8.3 3.9 12 9.6 13 2.6.5 5.3.2 11.2-1 4.9-1.2 6-1.7 6.8-3.5.7-1.3.8-4.1.2-4.1-1 0-4.6-2-6.1-3.6-5.4-5.4-5.3-14 .2-19.1 4.3-4 5-4.9 5.6-6 .4-.8.7-1.8.7-2.3 0-.8.1-1 .6-.8a76 76 0 0113.5 11c1.6 2.4 2.3 4.7 2.3 7.5 0 5.7-3 10.5-8.2 12.7l-1.7.7-.2 2.4c-.1 2.8-1 5.3-2.7 7.1l-1 1.2 1.3.2c3.7.6 10.3 3.3 14.6 6l2 1.3 1.2-1c5.3-4.2 12.6-6 19-4.7 5 1 9 3.2 12.5 6.8 4 4.2 5.7 8 6.5 14.6a29 29 0 003 10.6c1.1 2.3 2.5 3.7 3.6 3.7 1.2 0 0 1-3.1 2.4-2.9 1.4-19.5 7.2-22.2 7.8a23.2 23.2 0 01-27-29.4l.4-1.3-1-.7a37.2 37.2 0 00-9-4.4c-4-1.4-7.3-1.5-12-.3-4.4 1-12.1 1.1-15.9 0a24 24 0 01-8.1-3.8l-1.6-1.3-.2 2.5a98.8 98.8 0 01-15.4 44.2c-3.2 5.2-3.7 6.4-3.7 9 0 3 1.4 5.2 4.5 7.3l2 1.3 1.7-1.4c2.4-2 4.6-3.2 7.7-4.2 2.3-.8 3-1 7.2-1 4.4 0 4.7 0 7.4 1 4 1.4 6 2.8 9 5.7 4.3 4.3 6.3 8.6 7 15 .8 7.5 4 14.3 6.7 14.3.7 0 .7 0 .1.6A151 151 0 01214 507c-8.3 2.3-18.4-1-23.7-7.8-4.8-6-6.4-13.9-4.5-21 .2-.6-.2-1-2.3-2.5a21.6 21.6 0 01-8.9-12l-.2-1.4-3.1 3a68.2 68.2 0 01-17.2 12c-3.2 1.6-10.5 4.6-13.9 5.7-2.3.7-4.2 2-5.2 3.6-.8 1.4-1 4.2-.3 6.2l.4 1.1 2.6.2c5 .4 9 2.3 12.3 5.8a17.9 17.9 0 011.7 22.5c-3 4.6-4.6 9.6-3.5 11.6.3.6.3.7-.7.7-.6 0-2.5-.5-4.3-1.1z" fill="#3f473f"/></svg>