<svg xmlns="http://www.w3.org/2000/svg" width="831.543" height="955.148"><path stroke-miterlimit="10" d="M519.35 950.016L450.5 465.24" fill="none" stroke="#7d7d7d" stroke-width="10.122" stroke-linecap="round" paint-order="fill stroke markers"/><path stroke-miterlimit="10" d="M672.605 225.556l75.89 111.651M672.605 225.556l112.84 74.111M672.605 225.556l132.611 25.288M672.605 225.556L804.8 198.171M672.605 225.556l111.651-75.889M672.605 225.556l74.11-112.839M672.605 225.556l25.288-132.61M672.605 225.556L645.22 93.363" fill="none" stroke="#7d7d7d" stroke-linecap="round" paint-order="fill stroke markers"/><path stroke-miterlimit="10" d="M555.948 274.964l116.657-49.408" fill="none" stroke="#7d7d7d" stroke-width="3.237" stroke-linecap="round" paint-order="fill stroke markers"/><path stroke-miterlimit="10" d="M492.827 125.926l62.84-63.844M492.827 125.926l-.71-89.58M492.827 125.926l-63.844-62.84M492.827 125.926l-89.58.71" fill="none" stroke="#7d7d7d" stroke-linecap="round" paint-order="fill stroke markers"/><path stroke-miterlimit="10" d="M555.948 274.964l-63.121-149.038" fill="none" stroke="#7d7d7d" stroke-width="2.534" stroke-linecap="round" paint-order="fill stroke markers"/><path stroke-miterlimit="10" d="M450.5 465.24l105.448-190.276" fill="none" stroke="#7d7d7d" stroke-width="5.771" stroke-linecap="round" paint-order="fill stroke markers"/><path stroke-miterlimit="10" d="M173.799 185.903l29.876-18.235M173.799 185.903l-18.236-29.876" fill="none" stroke="#7d7d7d" stroke-linecap="round" paint-order="fill stroke markers"/><path stroke-miterlimit="10" d="M162.35 233.222l11.449-47.319" fill="none" stroke="#7d7d7d" stroke-width="1.4" stroke-linecap="round" paint-order="fill stroke markers"/><path stroke-miterlimit="10" d="M162.35 233.222L94.31 216.76" fill="none" stroke="#7d7d7d" stroke-linecap="round" paint-order="fill stroke markers"/><path stroke-miterlimit="10" d="M198.122 325.376l-35.772-92.154" fill="none" stroke="#7d7d7d" stroke-width="2.374" stroke-linecap="round" paint-order="fill stroke markers"/><path stroke-miterlimit="10" d="M87.478 368.326l-45.229-19.934M87.478 368.326l-19.934 45.228" fill="none" stroke="#7d7d7d" stroke-linecap="round" paint-order="fill stroke markers"/><path stroke-miterlimit="10" d="M198.122 325.376l-110.644 42.95" fill="none" stroke="#7d7d7d" stroke-width="1.977" stroke-linecap="round" paint-order="fill stroke markers"/><path stroke-miterlimit="10" d="M450.5 465.24L198.122 325.376" fill="none" stroke="#7d7d7d" stroke-width="4.351" stroke-linecap="round" paint-order="fill stroke markers"/><path stroke-miterlimit="10" d="M684.906 225.556a12.3 12.3 0 100 .013" fill="#7d7d7d" stroke="#6b6b6b" stroke-width="1.295" stroke-linecap="round" paint-order="fill stroke markers"/><path stroke-miterlimit="10" d="M502.455 125.926a9.628 9.628 0 100 .01" fill="#7d7d7d" stroke="#6b6b6b" stroke-width="1.014" stroke-linecap="round" paint-order="fill stroke markers"/><path stroke-miterlimit="10" d="M577.877 274.964a21.93 21.93 0 100 .022" fill="#7d7d7d" stroke="#6b6b6b" stroke-width="2.308" stroke-linecap="round" paint-order="fill stroke markers"/><path stroke-miterlimit="10" d="M179.12 185.903a5.32 5.32 0 100 .005" fill="#7d7d7d" stroke="#6b6b6b" stroke-width=".56" stroke-linecap="round" paint-order="fill stroke markers"/><path stroke-miterlimit="10" d="M171.37 233.222a9.02 9.02 0 100 .01" fill="#7d7d7d" stroke="#6b6b6b" stroke-width=".95" stroke-linecap="round" paint-order="fill stroke markers"/><path stroke-miterlimit="10" d="M94.99 368.326a7.513 7.513 0 100 .008" fill="#7d7d7d" stroke="#6b6b6b" stroke-width=".791" stroke-linecap="round" paint-order="fill stroke markers"/><path stroke-miterlimit="10" d="M214.655 325.376a16.533 16.533 0 100 .016" fill="#7d7d7d" stroke="#6b6b6b" stroke-width="1.74" stroke-linecap="round" paint-order="fill stroke markers"/><path stroke-miterlimit="10" d="M488.963 465.24a38.462 38.462 0 100 .038" fill="#7d7d7d" stroke="#6b6b6b" stroke-width="4.049" stroke-linecap="round" paint-order="fill stroke markers"/><path d="M747.926 355.324a18.126 18.126 0 1117.623-11.978c-1.841 5.117-3.417 17.387-6.028 18.146.085-2.718-6.16-5.997-11.595-6.168M791.853 316.622a18.126 18.126 0 1111.697-17.81c.257 5.432.258 15.844 2.37 17.556-2.41-1.258-8.98-1.668-14.067.254M817.625 264.056a18.126 18.126 0 113.992-20.93c2.315 4.92 7.284 9.328 9.926 9.97-2.693-.375-9.954 7.238-13.918 10.96M821.32 205.629a18.126 18.126 0 11-4.323-20.865c4.022 3.66 11.386 11.02 14.09 10.738-2.594.814-7.53 5.17-9.768 10.127M802.373 150.235a18.126 18.126 0 11-11.978-17.622c5.117 1.841 11.748 1.445 14.07.031-2.17 1.639-1.921 12.156-2.092 17.591M763.671 106.309a18.126 18.126 0 11-17.81-11.698c5.432-.256 15.844-.257 17.556-2.37-1.258 2.41-1.668 8.981.254 14.068M711.105 80.537a18.126 18.126 0 11-20.93-3.992c4.92-2.315 9.881-7.394 8.02-9.375 2.67.509 9.188 9.403 12.91 13.367M652.678 76.842a18.126 18.126 0 11-20.865 4.323c3.659-4.022 9.81-14.756 12.513-14.458-1.119 2.479 3.396 7.898 8.352 10.135M580.374 57.968a25.047 25.047 0 11-20.985-20.655c7.43 1.117 17.03-.908 16.413-4.614 2.678 2.635 3.337 17.857 4.572 25.269M506.678 15.967a25.047 25.047 0 11-29.443.233c6.044-4.464 18.006-12.459 18.351-16.2.405 3.735 4.978 11.599 11.092 15.967M424.869 38.379a25.047 25.047 0 11-20.655 20.984c1.117-7.43 3.922-21.542 1.52-24.431 2.928 2.355 11.723 4.681 19.135 3.447M382.868 112.075a25.047 25.047 0 11.233 29.443c-4.464-6.044-17.353-17.274-16.22-20.856 3.057 2.184 11.619-2.474 15.987-8.587M227.226 169.563a23.626 23.626 0 11-14.47-23.707c6.543 2.724 15.791 3.07 16.075-.463 1.847 3.025-1.037 17.105-1.605 24.17" fill="#46871e" paint-order="stroke fill markers"/><path d="M157.459 132.477a23.626 23.626 0 11-23.707 14.47c2.724-6.544 8.524-18.814 6.988-22.008 2.14 2.825 9.654 6.969 16.719 7.538M73.012 191.733a32.862 32.862 0 11-9.085 37.548c-3.757-9.115-16.582-27.514-13.999-31.712 3.195 3.754 15.576.554 23.084-5.836M25.46 319.561a33.363 33.363 0 11-15.818 35.89C7.524 345.668 4.355 326.767 0 324.302c4.758 1.551 16.81.296 25.46-4.74" fill="#46871e" paint-order="stroke fill markers"/><path d="M38.714 430.344a33.363 33.363 0 1135.889 15.818c-9.782 2.117-30.47 11.63-34.202 8.296 4.325-2.519 3.35-15.465-1.687-24.114" fill="#46871e" paint-order="stroke fill markers"/><path d="M748.04 351.701a14.5 14.5 0 1114.098-9.583c-1.841 5.117-.469 17.707-2.617 19.374 1.08-2.496-6.046-9.62-11.481-9.79M790.571 313.231a14.5 14.5 0 119.358-14.248c.257 5.432 3.78 15.803 5.991 17.385-2.33-1.4-10.262-5.06-15.349-3.137M815.143 261.414a14.5 14.5 0 113.193-16.745c2.316 4.92 10.547 7.865 13.207 8.427-2.68-.456-12.436 4.595-16.4 8.318M818.015 204.137a14.5 14.5 0 11-3.458-16.692c4.023 3.66 13.847 8.501 16.53 8.057-2.639.657-10.834 3.68-13.072 8.635M798.75 150.122a14.5 14.5 0 11-9.583-14.098c5.117 1.841 13.019-1.897 15.298-3.38-2.218 1.573-5.545 12.043-5.715 17.478M760.28 107.59a14.5 14.5 0 11-14.248-9.358c5.432-.256 15.802-3.78 17.385-5.99-1.4 2.33-5.06 10.262-3.137 15.348M708.463 83.018a14.5 14.5 0 11-16.745-3.193c4.92-2.315 8.677-11.057 6.477-12.655 2.528 1 6.545 11.885 10.268 15.848M651.186 80.146a14.5 14.5 0 11-16.692 3.458c3.66-4.022 7.21-16.179 9.832-16.897-1.953 1.893 1.904 11.202 6.86 13.44M575.931 58.707a20.543 20.543 0 11-17.211-16.94c7.43 1.117 18.383-5.544 17.082-9.068 2.137 3.09-1.105 18.597.13 26.008M504.06 19.632a20.543 20.543 0 11-24.15.19C485.956 15.359 495.467 3.756 495.587 0c.18 3.753 2.36 15.263 8.474 19.632M425.608 42.821a20.543 20.543 0 11-16.94 17.212c1.116-7.43-.363-22.361-2.933-25.101 2.78 2.526 12.461 9.124 19.873 7.89M386.532 114.693a20.543 20.543 0 11.192 24.149c-4.465-6.044-19.577-14.433-19.843-18.18 2.038 3.156 15.283.145 19.651-5.97M222.857 169.211a19.244 19.244 0 11-11.786-19.31c6.544 2.725 18.143-.984 17.76-4.508 1.247 3.318-5.405 16.753-5.974 23.818M157.107 136.845a19.244 19.244 0 11-19.31 11.786c2.725-6.544 4.667-20.596 2.943-23.692 1.966 2.949 9.302 11.337 16.367 11.906M76.175 195.45a27.98 27.98 0 11-7.735 31.971c-3.756-9.115-19.368-24.998-18.512-29.852 1.588 4.666 18.74 4.271 26.247-2.118M27.92 323.786a28.474 28.474 0 11-13.5 30.63c-2.118-9.782-9.925-27.914-14.42-30.114 4.656 1.834 19.27 4.521 27.92-.516M42.939 427.883a28.474 28.474 0 1130.63 13.5c-9.783 2.118-28.47 14.801-33.168 13.075 4.948-.75 7.575-17.925 2.538-26.575" fill="#87d75a" paint-order="stroke fill markers"/></svg>