<svg xmlns="http://www.w3.org/2000/svg" width="252.9" height="155.3" viewBox="0 0 66.91 41.09"><g fill="#3f473f"><path d="M31.96 19.36a5.3 5.3 0 01-1.84 4 6.18 6.18 0 01-4.35 1.7c-2.63 0-4.64-.86-6.05-2.6-1.41-1.74-2.11-4.14-2.11-7.21 0-2.86 1.2-5.74 3.63-8.64 2.42-2.9 5.34-5.1 8.75-6.61l1.58 2.54a19.86 19.86 0 00-6.35 4.57 10.89 10.89 0 00-2.65 6.32h2c1.49 0 2.7.16 3.63.5.93.33 1.68.8 2.26 1.39.54.57.93 1.2 1.16 1.9.23.68.34 1.4.34 2.14m-17.6 0a5.3 5.3 0 01-1.85 4 6.18 6.18 0 01-4.35 1.7c-2.62 0-4.64-.86-6.05-2.6C.71 20.72 0 18.32 0 15.25 0 12.39 1.21 9.5 3.63 6.6 6.06 3.7 8.97 1.5 12.4 0l1.57 2.54A19.86 19.86 0 007.62 7.1a10.89 10.89 0 00-2.66 6.32h2.01c1.48 0 2.69.16 3.62.5.93.33 1.69.8 2.26 1.39.55.57.94 1.2 1.16 1.9.23.68.35 1.4.35 2.14M49.53 39.13c2.08-1 3.71-2.18 4.89-3.52a8.4 8.4 0 002.05-4.88h-1.55a8.43 8.43 0 01-2.8-.38 4.45 4.45 0 01-1.73-1.07 3.8 3.8 0 01-.9-1.46 5.3 5.3 0 01-.27-1.66c0-1.17.48-2.2 1.43-3.08A4.76 4.76 0 0154 21.76c2.02 0 3.58.67 4.67 2 1.08 1.35 1.62 3.2 1.62 5.57 0 2.2-.93 4.43-2.8 6.66a18.24 18.24 0 01-6.75 5.1zm-13.58 0c2.08-1 3.71-2.18 4.9-3.52a8.4 8.4 0 002.04-4.88h-1.55a8.42 8.42 0 01-2.8-.38 4.44 4.44 0 01-1.73-1.07 3.82 3.82 0 01-.9-1.46 5.26 5.26 0 01-.26-1.66c0-1.17.47-2.2 1.42-3.08a4.77 4.77 0 013.35-1.32c2.03 0 3.58.67 4.67 2 1.08 1.35 1.63 3.2 1.63 5.57 0 2.2-.94 4.43-2.8 6.66a18.24 18.24 0 01-6.76 5.1zm0 0M58.9 13.92a11.4 11.4 0 003.64-2.63c.88-1 1.39-2.2 1.52-3.63h-1.15c-.85 0-1.54-.1-2.08-.29a3.3 3.3 0 01-1.3-.8 2.83 2.83 0 01-.67-1.08c-.13-.4-.2-.8-.2-1.23 0-.88.36-1.64 1.07-2.3.7-.66 1.54-.98 2.5-.98 1.5 0 2.66.5 3.47 1.5s1.21 2.37 1.21 4.14c0 1.64-.7 3.3-2.08 4.96a13.58 13.58 0 01-5.03 3.8zm-10.12 0a11.4 11.4 0 003.65-2.63c.88-1 1.38-2.2 1.52-3.63H52.8c-.85 0-1.55-.1-2.08-.29a3.3 3.3 0 01-1.3-.8 2.85 2.85 0 01-.67-1.08c-.13-.4-.2-.8-.2-1.23 0-.88.36-1.64 1.06-2.3.71-.66 1.54-.98 2.5-.98 1.51 0 2.67.5 3.48 1.5.8 1 1.21 2.37 1.21 4.14 0 1.64-.7 3.3-2.09 4.96a13.59 13.59 0 01-5.02 3.8zm0 0"/></g></svg>