<?xml version="1.0" encoding="UTF-8" standalone="no"?>
<svg
   xmlns:dc="http://purl.org/dc/elements/1.1/"
   xmlns:cc="http://creativecommons.org/ns#"
   xmlns:rdf="http://www.w3.org/1999/02/22-rdf-syntax-ns#"
   xmlns:svg="http://www.w3.org/2000/svg"
   xmlns="http://www.w3.org/2000/svg"
   viewBox="0 0 113.7 72"
   version="1.1"
   id="svg4202"
   style="fill-rule:evenodd;stroke-miterlimit:10;shape-rendering:geometricPrecision"
   stroke-miterlimit="10"
   height="72"
   width="113.7">
  <metadata
     id="metadata4210">
    <rdf:RDF>
      <cc:Work
         rdf:about="">
        <dc:format>image/svg+xml</dc:format>
        <dc:type
           rdf:resource="http://purl.org/dc/dcmitype/StillImage" />
        <dc:title></dc:title>
      </cc:Work>
    </rdf:RDF>
  </metadata>
  <defs
     id="defs4208" />
  <path
     id="path4204"
     d="m 113.7,1.21 c 0,0.41 -0.13,0.78 -0.38,1.12 -0.26,0.33 -0.53,0.5 -0.84,0.5 -2.49,0.24 -4.54,1.04 -6.12,2.41 -1.59,1.36 -3.22,3.97 -4.91,7.81 L 75.65,71.19 C 75.48,71.73 75.01,72 74.23,72 73.62,72 73.15,71.73 72.81,71.19 L 58.34,40.93 41.7,71.19 C 41.36,71.73 40.89,72 40.28,72 39.54,72 39.05,71.73 38.81,71.19 L 13.46,13.05 C 11.88,9.44 10.21,6.92 8.45,5.49 6.7,4.06 4.25,3.17 1.12,2.83 0.85,2.83 0.59,2.69 0.36,2.4 0.12,2.12 0,1.79 0,1.42 0,0.47 0.27,0 0.81,0 3.07,0 5.43,0.1 7.9,0.3 c 2.29,0.21 4.45,0.31 6.47,0.31 2.06,0 4.49,-0.1 7.29,-0.31 2.93,-0.2 5.53,-0.3 7.79,-0.3 0.54,0 0.81,0.47 0.81,1.42 0,0.94 -0.17,1.41 -0.5,1.41 -2.26,0.17 -4.04,0.75 -5.34,1.72 -1.3,0.98 -1.95,2.26 -1.95,3.85 0,0.81 0.27,1.82 0.81,3.03 L 44.23,58.74 56.12,36.28 45.04,13.05 C 43.05,8.91 41.41,6.23 40.13,5.03 38.85,3.84 36.91,3.1 34.31,2.83 34.07,2.83 33.85,2.69 33.63,2.4 33.41,2.12 33.3,1.79 33.3,1.42 33.3,0.47 33.53,0 34.01,0 c 2.26,0 4.33,0.1 6.22,0.3 1.82,0.21 3.76,0.31 5.82,0.31 2.02,0 4.16,-0.1 6.42,-0.31 C 54.8,0.1 57.09,0 59.35,0 c 0.54,0 0.81,0.47 0.81,1.42 0,0.94 -0.16,1.41 -0.5,1.41 -4.52,0.31 -6.78,1.59 -6.78,3.85 0,1.01 0.52,2.58 1.57,4.7 l 7.33,14.88 7.29,-13.61 c 1.01,-1.92 1.52,-3.54 1.52,-4.86 0,-3.1 -2.26,-4.75 -6.78,-4.96 C 63.4,2.83 63.2,2.36 63.2,1.42 63.2,1.08 63.3,0.76 63.5,0.46 63.71,0.15 63.91,0 64.11,0 c 1.62,0 3.61,0.1 5.97,0.3 2.26,0.21 4.12,0.31 5.57,0.31 1.04,0 2.58,-0.09 4.6,-0.26 C 82.81,0.12 84.96,0 86.68,0 c 0.4,0 0.6,0.4 0.6,1.21 0,1.08 -0.37,1.62 -1.11,1.62 -2.63,0.27 -4.75,1 -6.35,2.18 -1.6,1.18 -3.6,3.86 -5.99,8.04 L 64.11,31.02 77.27,57.83 96.7,12.65 C 97.37,11 97.71,9.48 97.71,8.1 c 0,-3.31 -2.26,-5.06 -6.78,-5.27 -0.41,0 -0.61,-0.47 -0.61,-1.41 0,-0.95 0.3,-1.42 0.91,-1.42 1.65,0 3.61,0.1 5.87,0.3 2.09,0.21 3.85,0.31 5.26,0.31 1.49,0 3.21,-0.1 5.16,-0.31 2.03,-0.2 3.85,-0.3 5.47,-0.3 0.47,0 0.71,0.4 0.71,1.21 z" />
</svg>
